<svg width="10" height="10" viewBox="0 0 10 10" fill="none" xmlns="http://www.w3.org/2000/svg">
<path fill-rule="evenodd" clip-rule="evenodd" d="M8.53557 4.35042C8.92609 3.9599 8.92609 3.32673 8.53557 2.93621C8.14504 2.54568 7.51188 2.54568 7.12135 2.93621L5.00006 5.0575L2.87874 2.93618C2.48822 2.54566 1.85505 2.54566 1.46453 2.93618C1.074 3.3267 1.074 3.95987 1.46453 4.35039L4.28684 7.17271C4.28886 7.17476 4.29089 7.17681 4.29293 7.17885C4.67735 7.56327 5.29689 7.56928 5.68866 7.19687C5.69488 7.19096 5.70104 7.18495 5.70714 7.17885C5.70715 7.17884 5.70716 7.17883 5.70717 7.17882C5.70724 7.17875 5.7073 7.17868 5.70737 7.17861L8.53557 4.35042Z" fill="black" fill-opacity="0.85"/>
</svg>
