<svg width="613" height="628" viewBox="0 0 613 628" fill="none" xmlns="http://www.w3.org/2000/svg">
<g opacity="0.3" clip-path="url(#clip0_495_6074)">
<path d="M306.5 628C475.775 628 613 548.733 613 450.953C613 353.172 475.775 273.906 306.5 273.906C137.225 273.906 0 353.172 0 450.953C0 548.733 137.225 628 306.5 628Z" fill="#F5F5F5"/>
<path d="M84.867 495.036C109.567 495.036 129.59 483.471 129.59 469.205C129.59 454.939 109.567 443.374 84.867 443.374C60.1674 443.374 40.1444 454.939 40.1444 469.205C40.1444 483.471 60.1674 495.036 84.867 495.036Z" fill="#E0E0E0"/>
<path d="M269.49 412.647L146.293 483.812L56.7384 431.697L179.921 360.531L269.49 412.647Z" fill="#E0E0E0"/>
<path d="M470.254 558.788L167.397 383.845C166.765 383.484 166.24 382.963 165.875 382.333C165.51 381.704 165.318 380.99 165.318 380.262C165.318 379.534 165.51 378.82 165.875 378.191C166.24 377.561 166.765 377.04 167.397 376.679L216.285 348.441C218.277 347.285 220.54 346.677 222.843 346.677C225.146 346.677 227.408 347.285 229.401 348.441L532.257 523.37C532.892 523.73 533.42 524.252 533.787 524.883C534.155 525.513 534.348 526.23 534.348 526.96C534.348 527.69 534.155 528.407 533.787 529.037C533.42 529.668 532.892 530.19 532.257 530.55L483.383 558.788C481.386 559.937 479.122 560.541 476.818 560.541C474.514 560.541 472.251 559.937 470.254 558.788Z" fill="#E0E0E0"/>
<path d="M517.506 468.393L534.526 478.283C534.526 478.283 525.933 450.856 530.704 423.265C532.505 412.839 536.286 407.668 537.578 404.889C538.87 402.111 549.181 384.89 540.149 376.968C531.116 369.045 509.903 384.808 510.865 427.309C511.334 441.229 513.565 455.034 517.506 468.393Z" fill="#1890FF"/>
<path opacity="0.3" d="M517.506 468.393L534.526 478.283C534.526 478.283 525.933 450.856 530.704 423.265C532.505 412.839 536.286 407.668 537.578 404.889C538.87 402.111 549.181 384.89 540.149 376.968C531.116 369.045 509.903 384.808 510.865 427.309C511.334 441.229 513.565 455.034 517.506 468.393Z" fill="black"/>
<path d="M525.411 473.607C525.286 473.607 525.163 473.568 525.06 473.497C524.957 473.426 524.878 473.325 524.833 473.208C524.765 473.029 518.344 455.176 518.674 426.525C519.004 397.875 534.127 382.387 534.278 382.236C534.395 382.119 534.553 382.054 534.718 382.054C534.883 382.054 535.042 382.119 535.158 382.236C535.275 382.353 535.34 382.511 535.34 382.676C535.34 382.841 535.275 383 535.158 383.116C535.007 383.268 520.242 398.246 519.912 426.539C519.582 454.832 525.933 472.603 525.988 472.781C526.017 472.856 526.03 472.936 526.028 473.016C526.025 473.096 526.007 473.175 525.973 473.248C525.94 473.321 525.893 473.387 525.834 473.441C525.775 473.496 525.706 473.538 525.631 473.565C525.561 473.592 525.486 473.606 525.411 473.607Z" fill="white"/>
<path d="M522.345 470.951L550.474 487.457C550.474 487.457 563.342 485.558 562.366 473.441C561.39 461.323 556.165 458.448 562.682 453.125C569.199 447.803 570.931 447.445 570.56 442.218C570.188 436.992 566.738 434.722 565.06 432.59C563.383 430.458 558.805 426.181 562.036 419.881C565.267 413.581 569.68 407.502 563.149 404.614C559.259 402.894 552.715 405.054 548.37 409.661C544.026 414.269 540.465 417.584 536.354 418.657C532.244 419.73 523.665 419.812 523.981 426.91C524.297 434.007 526.112 436.441 524.394 439.591C521.094 445.643 507.222 448.779 522.345 470.951Z" fill="#1890FF"/>
<path d="M533.742 478.31C533.588 478.308 533.44 478.249 533.326 478.145C533.212 478.041 533.14 477.899 533.124 477.746C533.124 477.32 530.044 435.451 559.121 407.956C559.178 407.898 559.245 407.852 559.319 407.821C559.394 407.79 559.474 407.773 559.554 407.773C559.635 407.773 559.715 407.79 559.789 407.821C559.864 407.852 559.931 407.898 559.987 407.956C560.102 408.074 560.165 408.232 560.165 408.396C560.165 408.561 560.102 408.718 559.987 408.836C531.35 435.919 534.347 477.21 534.388 477.609C534.4 477.772 534.348 477.934 534.243 478.059C534.137 478.185 533.988 478.265 533.825 478.283L533.742 478.31Z" fill="white"/>
<path d="M538.843 442.356C538.688 442.357 538.538 442.299 538.424 442.195C538.309 442.09 538.238 441.946 538.224 441.792C537.986 438.555 537.096 435.4 535.607 432.516C534.119 429.633 532.063 427.08 529.563 425.012C529.497 424.964 529.441 424.904 529.398 424.834C529.355 424.765 529.327 424.687 529.314 424.607C529.301 424.526 529.305 424.444 529.324 424.365C529.343 424.286 529.377 424.211 529.425 424.145C529.472 424.079 529.531 424.024 529.599 423.981C529.667 423.939 529.743 423.91 529.823 423.897C529.902 423.885 529.983 423.888 530.061 423.907C530.139 423.926 530.213 423.96 530.278 424.008C532.947 426.169 535.136 428.864 536.708 431.918C538.28 434.973 539.199 438.321 539.406 441.751C539.414 441.914 539.358 442.074 539.251 442.197C539.143 442.32 538.992 442.397 538.829 442.411L538.843 442.356Z" fill="white"/>
<path d="M536.712 449.522C536.636 449.523 536.56 449.509 536.489 449.481C536.418 449.452 536.354 449.41 536.299 449.357C536.242 449.3 536.196 449.233 536.164 449.159C536.133 449.084 536.117 449.004 536.117 448.924C536.117 448.843 536.133 448.763 536.164 448.688C536.196 448.614 536.242 448.547 536.299 448.49C536.602 448.16 543.902 440.238 560.757 442.603C560.919 442.624 561.067 442.708 561.167 442.837C561.267 442.966 561.313 443.129 561.293 443.291C561.269 443.454 561.183 443.602 561.052 443.702C560.921 443.802 560.756 443.847 560.592 443.828C544.425 441.599 537.289 449.233 537.221 449.329C537.157 449.399 537.077 449.453 536.989 449.486C536.901 449.519 536.806 449.532 536.712 449.522Z" fill="white"/>
<path d="M490.807 344.604L451.556 321.606L474.942 353.764L490.807 344.604Z" fill="#1890FF"/>
<path opacity="0.6" d="M490.807 344.604L451.556 321.606L474.942 353.764L490.807 344.604Z" fill="black"/>
<path d="M467.476 429.716L237.76 297.013C236.774 296.445 235.955 295.628 235.385 294.643C234.816 293.658 234.515 292.54 234.515 291.402V134.477C234.516 133.339 234.816 132.222 235.384 131.236C235.953 130.251 236.77 129.432 237.755 128.862C238.739 128.293 239.856 127.992 240.993 127.99C242.131 127.988 243.249 128.285 244.235 128.852L473.979 261.554C474.965 262.126 475.784 262.946 476.353 263.933C476.923 264.92 477.223 266.04 477.224 267.18V424.104C477.223 425.245 476.923 426.366 476.352 427.353C475.781 428.34 474.96 429.16 473.971 429.729C472.983 430.298 471.862 430.596 470.722 430.594C469.582 430.592 468.462 430.289 467.476 429.716Z" fill="#E0E0E0"/>
<path d="M474.928 353.764L490.807 344.604V530.288C490.809 531.962 490.368 533.607 489.531 535.056C488.693 536.506 487.488 537.708 486.036 538.541L470.35 547.633L474.928 353.764Z" fill="#1890FF"/>
<path opacity="0.3" d="M474.928 353.764L490.807 344.604V530.288C490.809 531.962 490.368 533.607 489.531 535.056C488.693 536.506 487.488 537.708 486.036 538.541L470.35 547.633L474.928 353.764Z" fill="black"/>
<path d="M457.055 435.589L227.311 302.886C226.328 302.312 225.513 301.491 224.946 300.504C224.38 299.517 224.081 298.399 224.08 297.261V140.295C224.079 139.157 224.378 138.038 224.947 137.052C225.515 136.066 226.333 135.248 227.319 134.679C228.304 134.11 229.422 133.811 230.56 133.812C231.698 133.812 232.815 134.113 233.8 134.683L463.544 267.386C464.53 267.954 465.349 268.772 465.919 269.757C466.488 270.742 466.789 271.86 466.789 272.998V429.964C466.79 431.104 466.49 432.223 465.921 433.211C465.352 434.198 464.532 435.018 463.546 435.588C462.559 436.159 461.44 436.459 460.301 436.459C459.161 436.459 458.042 436.159 457.055 435.589Z" fill="#EBEBEB"/>
<path d="M446.621 441.724L216.89 309.035C215.904 308.463 215.085 307.643 214.516 306.656C213.946 305.669 213.646 304.549 213.645 303.409V146.485C213.644 145.346 213.943 144.228 214.512 143.242C215.08 142.256 215.899 141.437 216.884 140.868C217.87 140.299 218.988 140 220.125 140.001C221.263 140.002 222.381 140.303 223.365 140.873L453.11 273.576C454.1 274.146 454.921 274.968 455.491 275.958C456.061 276.949 456.359 278.072 456.354 279.215V436.112C456.352 437.251 456.051 438.369 455.481 439.354C454.911 440.34 454.091 441.158 453.105 441.726C452.119 442.295 451.001 442.594 449.863 442.593C448.724 442.593 447.606 442.293 446.621 441.724Z" fill="#FAFAFA"/>
<path d="M181.31 144.421V375.083C181.309 378.357 182.17 381.573 183.807 384.407C185.443 387.242 187.797 389.596 190.631 391.231L461.469 547.646C462.837 548.435 464.389 548.85 465.968 548.85C467.548 548.849 469.099 548.432 470.467 547.642C471.835 546.852 472.971 545.716 473.761 544.348C474.551 542.98 474.968 541.428 474.969 539.848V353.764L332.126 271.237L307.449 214.294C302.843 203.659 294.937 194.79 284.902 189L194.508 136.733C193.166 135.957 191.642 135.55 190.092 135.553C188.542 135.556 187.02 135.969 185.681 136.749C184.341 137.529 183.232 138.65 182.464 139.997C181.696 141.344 181.298 142.871 181.31 144.421Z" fill="#1890FF"/>
<path opacity="0.2" d="M181.31 144.421V375.083C181.309 378.357 182.17 381.573 183.807 384.407C185.443 387.242 187.797 389.596 190.631 391.231L461.469 547.646C462.837 548.435 464.389 548.85 465.968 548.85C467.548 548.849 469.099 548.432 470.467 547.642C471.835 546.852 472.971 545.716 473.761 544.348C474.551 542.98 474.968 541.428 474.969 539.848V353.764L332.126 271.237L307.449 214.294C302.843 203.659 294.937 194.79 284.902 189L194.508 136.733C193.166 135.957 191.642 135.55 190.092 135.553C188.542 135.556 187.02 135.969 185.681 136.749C184.341 137.529 183.232 138.65 182.464 139.997C181.696 141.344 181.298 142.871 181.31 144.421Z" fill="black"/>
<path d="M395.945 396.128C395.189 395.688 394.433 395.302 393.69 394.959C393.113 377.215 380.74 356.24 365.617 347.492C360.516 344.535 355.732 343.366 351.607 343.723C345.833 324.99 332.566 306.586 317.114 297.618C297.399 286.23 281.231 294.441 279.664 315.843C278.715 315.183 277.753 314.564 276.79 314C261.819 305.362 249.693 312.363 249.693 329.653C249.693 346.942 261.819 367.972 276.79 376.61L395.986 445.465C407.796 452.342 417.365 446.758 417.365 433.086C417.365 419.414 407.755 402.881 395.945 396.128Z" fill="#1890FF"/>
<path opacity="0.4" d="M395.945 396.128C395.189 395.688 394.433 395.302 393.69 394.959C393.113 377.215 380.74 356.24 365.617 347.492C360.516 344.535 355.732 343.366 351.607 343.723C345.833 324.99 332.566 306.586 317.114 297.618C297.399 286.23 281.231 294.441 279.664 315.843C278.715 315.183 277.753 314.564 276.79 314C261.819 305.362 249.693 312.363 249.693 329.653C249.693 346.942 261.819 367.972 276.79 376.61L395.986 445.465C407.796 452.342 417.365 446.758 417.365 433.086C417.365 419.414 407.755 402.881 395.945 396.128Z" fill="white"/>
<path d="M294.388 394.532L322.475 445.754L352.487 427.557L340.623 420.858V370.16L308.645 351.715V402.84L294.388 394.532Z" fill="white"/>
<path d="M213.59 70.7251C183.656 70.7245 154.499 80.2579 130.342 97.9442C106.185 115.63 88.2838 140.551 79.2302 169.097L67.8606 162.55C67.5274 162.354 67.1499 162.248 66.7639 162.239C66.3778 162.231 65.996 162.321 65.6546 162.501C65.3131 162.682 65.0234 162.946 64.8128 163.27C64.6022 163.594 64.4777 163.966 64.451 164.352C62.3853 186.399 65.5654 208.622 73.731 229.204C77.7465 239.419 83.18 249.018 89.8713 257.717C90.0855 257.987 90.367 258.197 90.6877 258.324C91.0084 258.451 91.3569 258.492 91.6982 258.441C92.0395 258.391 92.3616 258.252 92.6322 258.038C92.9027 257.824 93.1122 257.542 93.2395 257.221C98.1943 244.789 105.029 233.191 113.504 222.835C118.986 216.03 125.15 209.803 131.899 204.253C132.278 203.944 132.576 203.547 132.767 203.097C132.959 202.646 133.037 202.156 132.997 201.669C132.956 201.181 132.797 200.711 132.534 200.298C132.271 199.886 131.912 199.544 131.487 199.302L117.849 191.42C125.118 165.14 141.007 142.067 162.962 125.908C184.916 109.75 211.663 101.443 238.905 102.324C266.146 103.205 292.301 113.221 313.167 130.765C334.034 148.308 348.4 172.359 353.958 199.054C350.791 163.996 334.633 131.391 308.659 107.645C282.686 83.8989 248.775 70.7298 213.59 70.7251Z" fill="#1890FF"/>
<path opacity="0.4" d="M213.59 70.7251C183.656 70.7245 154.499 80.2579 130.342 97.9442C106.185 115.63 88.2838 140.551 79.2302 169.097L67.8606 162.55C67.5274 162.354 67.1499 162.248 66.7639 162.239C66.3778 162.231 65.996 162.321 65.6546 162.501C65.3131 162.682 65.0234 162.946 64.8128 163.27C64.6022 163.594 64.4777 163.966 64.451 164.352C62.3853 186.399 65.5654 208.622 73.731 229.204C77.7465 239.419 83.18 249.018 89.8713 257.717C90.0855 257.987 90.367 258.197 90.6877 258.324C91.0084 258.451 91.3569 258.492 91.6982 258.441C92.0395 258.391 92.3616 258.252 92.6322 258.038C92.9027 257.824 93.1122 257.542 93.2395 257.221C98.1943 244.789 105.029 233.191 113.504 222.835C118.986 216.03 125.15 209.803 131.899 204.253C132.278 203.944 132.576 203.547 132.767 203.097C132.959 202.646 133.037 202.156 132.997 201.669C132.956 201.181 132.797 200.711 132.534 200.298C132.271 199.886 131.912 199.544 131.487 199.302L117.849 191.42C125.118 165.14 141.007 142.067 162.962 125.908C184.916 109.75 211.663 101.443 238.905 102.324C266.146 103.205 292.301 113.221 313.167 130.765C334.034 148.308 348.4 172.359 353.958 199.054C350.791 163.996 334.633 131.391 308.659 107.645C282.686 83.8989 248.775 70.7298 213.59 70.7251Z" fill="white"/>
<path d="M484.645 99.9347C500.15 90.9785 500.151 61.938 484.646 35.0708C469.142 8.20365 444.003 -6.31614 428.498 2.63998C412.993 11.5961 412.992 40.6366 428.497 67.5038C444.001 94.371 469.14 108.891 484.645 99.9347Z" fill="#1890FF"/>
<path opacity="0.2" d="M484.645 99.9347C500.15 90.9785 500.151 61.938 484.646 35.0708C469.142 8.20365 444.003 -6.31614 428.498 2.63998C412.993 11.5961 412.992 40.6366 428.497 67.5038C444.001 94.371 469.14 108.891 484.645 99.9347Z" fill="black"/>
<path d="M482.298 101.282C497.803 92.3262 497.804 63.2857 482.299 36.4185C466.795 9.5513 441.656 -4.9685 426.151 3.98761C410.645 12.9437 410.645 41.9843 426.15 68.8514C441.654 95.7186 466.793 110.238 482.298 101.282Z" fill="#1890FF"/>
<path d="M438.482 66.0212L469.044 83.7645C469.416 83.9827 469.839 84.0986 470.271 84.1004C470.702 84.1023 471.126 83.99 471.5 83.775C471.874 83.5599 472.185 83.2498 472.401 82.8759C472.616 82.5021 472.729 82.0779 472.728 81.6463V43.8216C472.721 42.8746 472.462 41.9466 471.979 41.1322C471.496 40.3179 470.806 39.6464 469.979 39.1863L439.417 21.4981C439.044 21.2799 438.621 21.164 438.19 21.1621C437.758 21.1603 437.334 21.2726 436.96 21.4876C436.586 21.7027 436.275 22.0128 436.06 22.3866C435.844 22.7605 435.731 23.1847 435.732 23.6163V61.441C435.749 62.3786 436.012 63.2952 436.495 64.0991C436.977 64.9029 437.662 65.5658 438.482 66.0212Z" fill="#1890FF"/>
<path opacity="0.6" d="M438.482 66.0212L469.044 83.7645C469.416 83.9827 469.839 84.0986 470.271 84.1004C470.702 84.1023 471.126 83.99 471.5 83.775C471.874 83.5599 472.185 83.2498 472.401 82.8759C472.616 82.5021 472.729 82.0779 472.728 81.6463V43.8216C472.721 42.8746 472.462 41.9466 471.979 41.1322C471.496 40.3179 470.806 39.6464 469.979 39.1863L439.417 21.4981C439.044 21.2799 438.621 21.164 438.19 21.1621C437.758 21.1603 437.334 21.2726 436.96 21.4876C436.586 21.7027 436.275 22.0128 436.06 22.3866C435.844 22.7605 435.731 23.1847 435.732 23.6163V61.441C435.749 62.3786 436.012 63.2952 436.495 64.0991C436.977 64.9029 437.662 65.5658 438.482 66.0212Z" fill="white"/>
<path d="M441.548 60.5194L466.115 74.6452C466.417 74.8227 466.76 74.9161 467.109 74.9155C467.459 74.9149 467.802 74.8205 468.103 74.642C468.403 74.4635 468.65 74.2075 468.818 73.9008C468.986 73.5941 469.069 73.2479 469.057 72.8984V44.5642C469.057 43.8114 468.859 43.072 468.482 42.4201C468.106 41.7683 467.564 41.227 466.913 40.8505L442.345 26.6697C442.046 26.4987 441.708 26.4092 441.363 26.4102C441.019 26.4111 440.681 26.5025 440.383 26.6752C440.085 26.8479 439.838 27.0958 439.666 27.3942C439.494 27.6925 439.403 28.0308 439.403 28.3753V56.7507C439.394 57.5128 439.587 58.2637 439.964 58.926C440.341 59.5884 440.888 60.1383 441.548 60.5194Z" fill="#1890FF"/>
<path opacity="0.4" d="M469.057 44.5647V72.8988C469.061 73.2449 468.973 73.5858 468.802 73.8866C468.631 74.1874 468.383 74.4374 468.084 74.6109C467.785 74.7844 467.445 74.8753 467.099 74.8741C466.753 74.873 466.414 74.7799 466.115 74.6044L441.548 60.5198C440.895 60.1478 440.353 59.6094 439.976 58.9594C439.599 58.3095 439.402 57.5712 439.403 56.8199V28.3757C439.399 28.0296 439.487 27.6887 439.658 27.3879C439.829 27.0871 440.077 26.8371 440.376 26.6636C440.675 26.4901 441.015 26.3992 441.361 26.4004C441.707 26.4016 442.047 26.4946 442.345 26.6701L466.913 40.8647C467.565 41.2367 468.107 41.7752 468.484 42.4251C468.861 43.0751 469.059 43.8133 469.057 44.5647Z" fill="white"/>
<path d="M469.057 71.8944V72.8985C469.061 73.2446 468.973 73.5855 468.802 73.8863C468.631 74.1871 468.383 74.4371 468.084 74.6106C467.785 74.7841 467.445 74.8749 467.099 74.8738C466.753 74.8726 466.414 74.7795 466.115 74.604L441.548 60.5195C440.895 60.1475 440.353 59.6091 439.976 58.9591C439.599 58.3091 439.402 57.5709 439.403 56.8196V54.0687L445.837 48.5669L453.426 59.3779L460.836 50.5613L469.057 71.8944Z" fill="#FAFAFA"/>
<path d="M447.872 40.053C447.935 41.2006 448.266 42.3175 448.839 43.3136C449.412 44.3098 450.211 45.1575 451.171 45.7886C453 46.8477 454.485 45.9949 454.485 43.8767C454.42 42.7279 454.086 41.6103 453.511 40.614C452.935 39.6177 452.134 38.7707 451.171 38.1411C449.356 37.137 447.872 37.9486 447.872 40.053Z" fill="#FAFAFA"/>
<path d="M553.44 241.165C568.945 232.209 568.946 203.168 553.441 176.301C537.937 149.434 512.798 134.914 497.293 143.87C481.787 152.826 481.787 181.867 497.292 208.734C512.796 235.601 537.935 250.121 553.44 241.165Z" fill="#1890FF"/>
<path opacity="0.2" d="M553.44 241.165C568.945 232.209 568.946 203.168 553.441 176.301C537.937 149.434 512.798 134.914 497.293 143.87C481.787 152.826 481.787 181.867 497.292 208.734C512.796 235.601 537.935 250.121 553.44 241.165Z" fill="black"/>
<path d="M551.113 242.511C566.619 233.555 566.619 204.514 551.115 177.647C535.61 150.78 510.472 136.26 494.966 145.216C479.461 154.172 479.46 183.213 494.965 210.08C510.47 236.947 535.608 251.467 551.113 242.511Z" fill="#1890FF"/>
<path d="M508.226 162.715C507.852 162.501 507.428 162.388 506.997 162.389C506.566 162.39 506.143 162.504 505.77 162.72C505.397 162.936 505.087 163.246 504.872 163.619C504.656 163.992 504.542 164.416 504.541 164.847V202.672C504.541 203.61 504.789 204.532 505.26 205.343C505.731 206.155 506.408 206.828 507.222 207.293L537.853 224.995C538.23 225.23 538.665 225.358 539.109 225.365C539.554 225.372 539.992 225.258 540.376 225.034C540.761 224.811 541.077 224.487 541.291 224.097C541.506 223.707 541.61 223.266 541.592 222.822V194.749L533.344 177.157L508.226 162.715Z" fill="#1890FF"/>
<path opacity="0.6" d="M508.226 162.715C507.852 162.501 507.428 162.388 506.997 162.389C506.566 162.39 506.143 162.504 505.77 162.72C505.397 162.936 505.087 163.246 504.872 163.619C504.656 163.992 504.542 164.416 504.541 164.847V202.672C504.541 203.61 504.789 204.532 505.26 205.343C505.731 206.155 506.408 206.828 507.222 207.293L537.853 224.995C538.23 225.23 538.665 225.358 539.109 225.365C539.554 225.372 539.992 225.258 540.376 225.034C540.761 224.811 541.077 224.487 541.291 224.097C541.506 223.707 541.61 223.266 541.592 222.822V194.749L533.344 177.157L508.226 162.715Z" fill="white"/>
<path d="M532.147 183.594L533.22 177.157L541.469 194.763L533.976 188.587C533.26 187.988 532.715 187.212 532.394 186.336C532.073 185.459 531.988 184.514 532.147 183.594Z" fill="#1890FF"/>
<path opacity="0.4" d="M532.147 183.594L533.22 177.157L541.469 194.763L533.976 188.587C533.26 187.988 532.715 187.212 532.394 186.336C532.073 185.459 531.988 184.514 532.147 183.594Z" fill="white"/>
<path d="M535.131 198.366C534.98 198.364 534.833 198.321 534.705 198.243L510.522 184.309C510.33 184.195 510.191 184.009 510.135 183.793C510.078 183.577 510.108 183.348 510.219 183.154C510.331 182.963 510.514 182.824 510.728 182.768C510.941 182.711 511.169 182.741 511.36 182.851L535.557 196.812C535.749 196.927 535.888 197.112 535.944 197.328C536.001 197.544 535.97 197.774 535.859 197.967C535.784 198.092 535.677 198.195 535.549 198.265C535.421 198.335 535.277 198.37 535.131 198.366Z" fill="#FAFAFA"/>
<path d="M535.131 206.564C534.982 206.561 534.836 206.523 534.705 206.454L510.522 192.48C510.33 192.365 510.191 192.18 510.135 191.964C510.078 191.748 510.108 191.518 510.219 191.324C510.331 191.134 510.514 190.995 510.728 190.938C510.941 190.881 511.169 190.912 511.36 191.022L535.557 204.941C535.749 205.056 535.888 205.241 535.944 205.457C536.001 205.673 535.97 205.903 535.859 206.097C535.793 206.234 535.69 206.351 535.561 206.434C535.433 206.516 535.284 206.562 535.131 206.564Z" fill="#FAFAFA"/>
<path d="M535.131 214.762C534.982 214.758 534.836 214.721 534.705 214.652L510.522 200.677C510.33 200.563 510.191 200.378 510.135 200.162C510.078 199.946 510.108 199.716 510.219 199.522C510.331 199.331 510.514 199.193 510.728 199.136C510.941 199.079 511.169 199.109 511.36 199.22L535.557 213.194C535.719 213.286 535.845 213.429 535.916 213.601C535.988 213.773 536 213.964 535.951 214.143C535.902 214.323 535.795 214.481 535.647 214.593C535.498 214.705 535.317 214.764 535.131 214.762Z" fill="#FAFAFA"/>
<path d="M409.808 159.477C425.385 150.521 425.443 121.38 409.938 94.3898C394.434 67.3993 369.238 52.7795 353.661 61.7357C338.085 70.6918 338.026 99.8323 353.531 126.823C369.036 153.813 394.232 168.433 409.808 159.477Z" fill="#1890FF"/>
<path opacity="0.2" d="M409.808 159.477C425.385 150.521 425.443 121.38 409.938 94.3898C394.434 67.3993 369.238 52.7795 353.661 61.7357C338.085 70.6918 338.026 99.8323 353.531 126.823C369.036 153.813 394.232 168.433 409.808 159.477Z" fill="black"/>
<path d="M405.815 160.018C421.32 151.062 421.32 122.022 405.816 95.1543C390.311 68.2871 365.173 53.7673 349.667 62.7235C334.162 71.6796 334.162 100.72 349.666 127.587C365.171 154.454 390.309 168.974 405.815 160.018Z" fill="#1890FF"/>
<path d="M361.919 124.822L392.549 142.51C392.922 142.728 393.345 142.844 393.776 142.846C394.208 142.848 394.632 142.735 395.006 142.52C395.38 142.305 395.691 141.995 395.906 141.621C396.122 141.248 396.235 140.823 396.234 140.392V102.567C396.233 101.627 395.985 100.703 395.515 99.8897C395.044 99.0759 394.367 98.4006 393.553 97.9317L362.867 80.2435C362.495 80.0287 362.074 79.9156 361.644 79.9155C361.215 79.9154 360.793 80.0284 360.421 80.243C360.049 80.4576 359.74 80.7664 359.525 81.1383C359.31 81.5102 359.197 81.9321 359.196 82.3617V120.186C359.202 121.13 359.457 122.056 359.935 122.87C360.413 123.684 361.097 124.357 361.919 124.822Z" fill="#1890FF"/>
<path opacity="0.6" d="M361.919 124.822L392.549 142.51C392.922 142.728 393.345 142.844 393.776 142.846C394.208 142.848 394.632 142.735 395.006 142.52C395.38 142.305 395.691 141.995 395.906 141.621C396.122 141.248 396.235 140.823 396.234 140.392V102.567C396.233 101.627 395.985 100.703 395.515 99.8897C395.044 99.0759 394.367 98.4006 393.553 97.9317L362.867 80.2435C362.495 80.0287 362.074 79.9156 361.644 79.9155C361.215 79.9154 360.793 80.0284 360.421 80.243C360.049 80.4576 359.74 80.7664 359.525 81.1383C359.31 81.5102 359.197 81.9321 359.196 82.3617V120.186C359.202 121.13 359.457 122.056 359.935 122.87C360.413 123.684 361.097 124.357 361.919 124.822Z" fill="white"/>
<path d="M370.264 104.96V117.793C370.264 118.3 370.465 118.786 370.823 119.145C371.182 119.503 371.668 119.705 372.175 119.705H383.297C383.663 119.705 384.022 119.599 384.33 119.401C384.638 119.203 384.882 118.92 385.034 118.587C385.186 118.254 385.24 117.884 385.187 117.521C385.135 117.158 384.98 116.818 384.74 116.541L373.618 103.708C373.363 103.414 373.024 103.205 372.647 103.109C372.269 103.012 371.872 103.034 371.507 103.17C371.142 103.306 370.827 103.55 370.605 103.87C370.383 104.19 370.264 104.57 370.264 104.96Z" fill="#FAFAFA"/>
<path d="M456.56 106.624C456.302 106.624 456.053 106.522 455.87 106.338C455.687 106.155 455.584 105.907 455.584 105.648V103.048C455.584 102.789 455.687 102.541 455.87 102.358C456.053 102.175 456.302 102.072 456.56 102.072C456.688 102.072 456.814 102.097 456.932 102.146C457.05 102.196 457.156 102.268 457.246 102.359C457.335 102.449 457.406 102.557 457.454 102.676C457.501 102.794 457.525 102.921 457.523 103.048V105.648C457.525 105.776 457.501 105.902 457.454 106.021C457.406 106.139 457.335 106.247 457.246 106.338C457.156 106.429 457.05 106.501 456.932 106.55C456.814 106.599 456.688 106.625 456.56 106.624Z" fill="#1890FF"/>
<path d="M456.56 252.119C456.302 252.119 456.053 252.016 455.87 251.833C455.687 251.65 455.584 251.401 455.584 251.142V245.943C455.584 245.684 455.687 245.436 455.87 245.253C456.053 245.07 456.302 244.967 456.56 244.967C456.688 244.967 456.814 244.992 456.932 245.041C457.05 245.09 457.156 245.163 457.246 245.254C457.335 245.344 457.406 245.452 457.454 245.571C457.501 245.689 457.525 245.816 457.523 245.943V251.142C457.525 251.27 457.501 251.397 457.454 251.515C457.406 251.633 457.335 251.741 457.246 251.832C457.156 251.923 457.05 251.995 456.932 252.044C456.814 252.094 456.688 252.119 456.56 252.119ZM456.56 241.721C456.302 241.721 456.053 241.618 455.87 241.435C455.687 241.251 455.584 241.003 455.584 240.744V235.559C455.584 235.3 455.687 235.051 455.87 234.868C456.053 234.685 456.302 234.582 456.56 234.582C456.688 234.582 456.814 234.607 456.932 234.657C457.05 234.706 457.156 234.778 457.246 234.869C457.335 234.96 457.406 235.068 457.454 235.186C457.501 235.304 457.525 235.431 457.523 235.559V240.703C457.53 240.834 457.511 240.965 457.466 241.088C457.421 241.211 457.351 241.324 457.261 241.419C457.171 241.515 457.062 241.591 456.942 241.642C456.821 241.694 456.692 241.721 456.56 241.721ZM456.56 231.336C456.302 231.336 456.053 231.233 455.87 231.05C455.687 230.867 455.584 230.618 455.584 230.359V225.16C455.584 224.901 455.687 224.653 455.87 224.47C456.053 224.287 456.302 224.184 456.56 224.184C456.688 224.184 456.814 224.209 456.932 224.258C457.05 224.308 457.156 224.38 457.246 224.471C457.335 224.561 457.406 224.669 457.454 224.788C457.501 224.906 457.525 225.033 457.523 225.16V230.359C457.525 230.487 457.501 230.614 457.454 230.732C457.406 230.851 457.335 230.958 457.246 231.049C457.156 231.14 457.05 231.212 456.932 231.261C456.814 231.311 456.688 231.336 456.56 231.336ZM456.56 220.938C456.302 220.938 456.053 220.835 455.87 220.652C455.687 220.469 455.584 220.22 455.584 219.961V214.762C455.584 214.634 455.61 214.508 455.659 214.39C455.708 214.273 455.78 214.166 455.871 214.076C455.962 213.987 456.07 213.916 456.188 213.868C456.306 213.821 456.433 213.797 456.56 213.799C456.816 213.799 457.06 213.901 457.241 214.081C457.421 214.262 457.523 214.507 457.523 214.762V219.961C457.525 220.089 457.501 220.215 457.454 220.334C457.406 220.452 457.335 220.56 457.246 220.651C457.156 220.742 457.05 220.814 456.932 220.863C456.814 220.912 456.688 220.938 456.56 220.938ZM456.56 210.553C456.302 210.553 456.053 210.45 455.87 210.267C455.687 210.084 455.584 209.836 455.584 209.577V204.377C455.584 204.118 455.687 203.87 455.87 203.687C456.053 203.504 456.302 203.401 456.56 203.401C456.688 203.401 456.814 203.426 456.932 203.475C457.05 203.525 457.156 203.597 457.246 203.688C457.335 203.778 457.406 203.886 457.454 204.005C457.501 204.123 457.525 204.25 457.523 204.377V209.577C457.525 209.704 457.501 209.831 457.454 209.949C457.406 210.068 457.335 210.175 457.246 210.266C457.156 210.357 457.05 210.429 456.932 210.478C456.814 210.528 456.688 210.553 456.56 210.553ZM456.56 200.155C456.302 200.155 456.053 200.052 455.87 199.869C455.687 199.686 455.584 199.437 455.584 199.178V193.938C455.584 193.679 455.687 193.43 455.87 193.247C456.053 193.064 456.302 192.961 456.56 192.961C456.688 192.961 456.814 192.986 456.932 193.036C457.05 193.085 457.156 193.157 457.246 193.248C457.335 193.339 457.406 193.447 457.454 193.565C457.501 193.683 457.525 193.81 457.523 193.938V199.137C457.53 199.268 457.511 199.399 457.466 199.522C457.421 199.646 457.351 199.758 457.261 199.854C457.171 199.949 457.062 200.025 456.942 200.077C456.821 200.128 456.692 200.155 456.56 200.155ZM456.56 189.756C456.433 189.758 456.306 189.735 456.188 189.687C456.07 189.639 455.962 189.569 455.871 189.479C455.78 189.39 455.708 189.283 455.659 189.165C455.61 189.048 455.584 188.921 455.584 188.794V183.594C455.584 183.335 455.687 183.087 455.87 182.904C456.053 182.721 456.302 182.618 456.56 182.618C456.688 182.618 456.814 182.643 456.932 182.692C457.05 182.742 457.156 182.814 457.246 182.905C457.335 182.996 457.406 183.103 457.454 183.222C457.501 183.34 457.525 183.467 457.523 183.594V188.794C457.53 188.925 457.511 189.056 457.466 189.179C457.421 189.302 457.351 189.415 457.261 189.51C457.171 189.606 457.062 189.681 456.942 189.733C456.821 189.785 456.692 189.812 456.56 189.811V189.756ZM456.56 179.372C456.302 179.372 456.053 179.269 455.87 179.086C455.687 178.903 455.584 178.654 455.584 178.395V173.196C455.584 172.937 455.687 172.689 455.87 172.505C456.053 172.322 456.302 172.219 456.56 172.219C456.688 172.219 456.814 172.245 456.932 172.294C457.05 172.343 457.156 172.415 457.246 172.506C457.335 172.597 457.406 172.705 457.454 172.823C457.501 172.942 457.525 173.068 457.523 173.196V178.395C457.525 178.523 457.501 178.649 457.454 178.768C457.406 178.886 457.335 178.994 457.246 179.085C457.156 179.176 457.05 179.248 456.932 179.297C456.814 179.346 456.688 179.372 456.56 179.372ZM456.56 168.973C456.432 168.973 456.305 168.948 456.187 168.899C456.068 168.85 455.961 168.778 455.87 168.687C455.78 168.597 455.708 168.489 455.659 168.371C455.61 168.252 455.584 168.125 455.584 167.997V162.811C455.584 162.552 455.687 162.304 455.87 162.121C456.053 161.938 456.302 161.835 456.56 161.835C456.688 161.835 456.814 161.86 456.932 161.909C457.05 161.959 457.156 162.031 457.246 162.122C457.335 162.213 457.406 162.32 457.454 162.439C457.501 162.557 457.525 162.684 457.523 162.811V167.997C457.525 168.124 457.501 168.251 457.454 168.37C457.406 168.488 457.335 168.596 457.246 168.687C457.156 168.777 457.05 168.85 456.932 168.899C456.814 168.948 456.688 168.973 456.56 168.973ZM456.56 158.589C456.302 158.589 456.053 158.486 455.87 158.303C455.687 158.12 455.584 157.871 455.584 157.612V152.413C455.584 152.154 455.687 151.906 455.87 151.723C456.053 151.539 456.302 151.437 456.56 151.437C456.688 151.437 456.814 151.462 456.932 151.511C457.05 151.56 457.156 151.632 457.246 151.723C457.335 151.814 457.406 151.922 457.454 152.04C457.501 152.159 457.525 152.285 457.523 152.413V157.612C457.525 157.74 457.501 157.867 457.454 157.985C457.406 158.103 457.335 158.211 457.246 158.302C457.156 158.393 457.05 158.465 456.932 158.514C456.814 158.563 456.688 158.589 456.56 158.589ZM456.56 148.19C456.302 148.19 456.053 148.088 455.87 147.904C455.687 147.721 455.584 147.473 455.584 147.214V142.015C455.584 141.887 455.61 141.761 455.659 141.643C455.708 141.525 455.78 141.419 455.871 141.329C455.962 141.239 456.07 141.169 456.188 141.121C456.306 141.074 456.433 141.05 456.56 141.052C456.816 141.052 457.06 141.153 457.241 141.334C457.421 141.514 457.523 141.759 457.523 142.015V147.173C457.53 147.304 457.511 147.435 457.466 147.558C457.421 147.681 457.351 147.794 457.261 147.889C457.171 147.985 457.062 148.061 456.942 148.112C456.821 148.164 456.692 148.191 456.56 148.19ZM456.56 137.806C456.302 137.806 456.053 137.703 455.87 137.52C455.687 137.337 455.584 137.088 455.584 136.829V131.63C455.584 131.371 455.687 131.123 455.87 130.94C456.053 130.756 456.302 130.654 456.56 130.654C456.688 130.654 456.814 130.679 456.932 130.728C457.05 130.777 457.156 130.85 457.246 130.94C457.335 131.031 457.406 131.139 457.454 131.257C457.501 131.376 457.525 131.503 457.523 131.63V136.829C457.525 136.957 457.501 137.084 457.454 137.202C457.406 137.32 457.335 137.428 457.246 137.519C457.156 137.61 457.05 137.682 456.932 137.731C456.814 137.781 456.688 137.806 456.56 137.806ZM456.56 127.408C456.302 127.408 456.053 127.305 455.87 127.121C455.687 126.938 455.584 126.69 455.584 126.431V121.232C455.584 120.973 455.687 120.724 455.87 120.541C456.053 120.358 456.302 120.255 456.56 120.255C456.688 120.255 456.814 120.281 456.932 120.33C457.05 120.379 457.156 120.451 457.246 120.542C457.335 120.633 457.406 120.741 457.454 120.859C457.501 120.978 457.525 121.104 457.523 121.232V126.431C457.525 126.559 457.501 126.685 457.454 126.804C457.406 126.922 457.335 127.03 457.246 127.121C457.156 127.212 457.05 127.284 456.932 127.333C456.814 127.382 456.688 127.408 456.56 127.408ZM456.56 117.009C456.433 117.011 456.306 116.987 456.188 116.94C456.07 116.892 455.962 116.822 455.871 116.732C455.78 116.642 455.708 116.536 455.659 116.418C455.61 116.3 455.584 116.174 455.584 116.046V110.847C455.584 110.588 455.687 110.34 455.87 110.157C456.053 109.973 456.302 109.871 456.56 109.871C456.688 109.871 456.814 109.896 456.932 109.945C457.05 109.994 457.156 110.067 457.246 110.157C457.335 110.248 457.406 110.356 457.454 110.474C457.501 110.593 457.525 110.72 457.523 110.847V116.046C457.523 116.173 457.498 116.298 457.45 116.415C457.401 116.532 457.33 116.638 457.241 116.727C457.152 116.817 457.046 116.887 456.929 116.936C456.812 116.984 456.687 117.009 456.56 117.009Z" fill="#1890FF"/>
<path d="M456.56 259.959C456.433 259.961 456.306 259.937 456.188 259.89C456.07 259.842 455.962 259.771 455.871 259.682C455.78 259.592 455.708 259.485 455.659 259.368C455.61 259.25 455.584 259.124 455.584 258.996V256.396C455.584 256.137 455.687 255.889 455.87 255.706C456.053 255.523 456.302 255.42 456.56 255.42C456.688 255.42 456.814 255.445 456.932 255.495C457.05 255.544 457.156 255.616 457.246 255.707C457.335 255.798 457.406 255.905 457.454 256.024C457.501 256.142 457.525 256.269 457.523 256.396V258.996C457.523 259.251 457.421 259.496 457.241 259.677C457.06 259.857 456.816 259.959 456.56 259.959Z" fill="#1890FF"/>
<path d="M481.101 195.987C480.92 195.989 480.743 195.94 480.59 195.845C480.436 195.75 480.313 195.613 480.235 195.451C480.176 195.336 480.141 195.211 480.132 195.083C480.122 194.955 480.138 194.826 480.179 194.704C480.22 194.583 480.285 194.47 480.37 194.374C480.455 194.278 480.559 194.2 480.675 194.144L482.998 192.989C483.112 192.932 483.236 192.898 483.362 192.889C483.489 192.88 483.617 192.896 483.737 192.936C483.858 192.976 483.969 193.04 484.066 193.123C484.162 193.206 484.24 193.308 484.297 193.422C484.354 193.536 484.388 193.659 484.397 193.786C484.406 193.913 484.39 194.041 484.35 194.161C484.31 194.282 484.246 194.394 484.163 194.49C484.079 194.586 483.978 194.665 483.864 194.722L481.541 195.891C481.404 195.957 481.253 195.99 481.101 195.987Z" fill="#1890FF"/>
<path d="M469.662 201.681C469.482 201.684 469.305 201.634 469.151 201.539C468.998 201.444 468.875 201.307 468.796 201.145C468.726 201.028 468.682 200.897 468.666 200.761C468.651 200.625 468.664 200.488 468.706 200.358C468.748 200.228 468.816 200.108 468.908 200.007C468.999 199.905 469.111 199.824 469.236 199.769L474.955 196.922C475.073 196.854 475.204 196.812 475.339 196.798C475.474 196.783 475.611 196.797 475.74 196.838C475.869 196.88 475.989 196.948 476.09 197.038C476.192 197.128 476.274 197.239 476.33 197.362C476.398 197.48 476.44 197.611 476.455 197.746C476.469 197.881 476.455 198.018 476.414 198.147C476.373 198.277 476.305 198.396 476.214 198.498C476.124 198.6 476.014 198.681 475.89 198.738L470.102 201.585C469.965 201.651 469.815 201.684 469.662 201.681Z" fill="#1890FF"/>
<path d="M461.62 205.684C461.439 205.686 461.262 205.637 461.109 205.542C460.955 205.447 460.832 205.31 460.754 205.147C460.684 205.03 460.639 204.899 460.624 204.764C460.608 204.628 460.622 204.49 460.663 204.36C460.705 204.23 460.774 204.111 460.865 204.009C460.957 203.908 461.068 203.827 461.194 203.772L463.517 202.617C463.635 202.549 463.765 202.506 463.9 202.492C464.036 202.477 464.172 202.491 464.302 202.533C464.431 202.574 464.55 202.642 464.652 202.732C464.754 202.823 464.835 202.933 464.892 203.057C465.006 203.288 465.024 203.556 464.942 203.801C464.859 204.046 464.683 204.248 464.452 204.363L462.128 205.519C461.978 205.62 461.801 205.677 461.62 205.684Z" fill="#1890FF"/>
<path d="M425.627 135.206C425.461 135.208 425.297 135.165 425.152 135.083C425.007 135.001 424.887 134.882 424.802 134.739L423.428 132.511C423.353 132.401 423.302 132.277 423.278 132.147C423.253 132.017 423.256 131.883 423.286 131.754C423.315 131.625 423.371 131.503 423.45 131.397C423.529 131.29 423.629 131.201 423.744 131.135C423.855 131.065 423.98 131.018 424.11 130.997C424.24 130.976 424.372 130.98 424.5 131.011C424.628 131.042 424.749 131.098 424.855 131.176C424.961 131.254 425.051 131.352 425.119 131.465L426.493 133.693C426.585 133.841 426.635 134.01 426.639 134.184C426.642 134.357 426.599 134.529 426.513 134.679C426.427 134.83 426.302 134.955 426.151 135.041C425.999 135.126 425.828 135.169 425.655 135.165L425.627 135.206Z" fill="#1890FF"/>
<path d="M446.964 170.431C446.796 170.432 446.63 170.39 446.484 170.308C446.337 170.226 446.213 170.107 446.126 169.964L443.459 165.562C443.384 165.453 443.333 165.33 443.308 165.2C443.282 165.07 443.284 164.936 443.312 164.807C443.339 164.678 443.393 164.556 443.47 164.448C443.546 164.34 443.644 164.249 443.756 164.18C443.869 164.111 443.995 164.066 444.126 164.047C444.256 164.028 444.39 164.035 444.517 164.07C444.645 164.104 444.764 164.163 444.868 164.245C444.972 164.326 445.059 164.428 445.122 164.544L447.789 168.946C447.859 169.057 447.906 169.182 447.927 169.312C447.949 169.442 447.944 169.575 447.913 169.703C447.882 169.831 447.826 169.952 447.748 170.058C447.67 170.164 447.572 170.254 447.459 170.321C447.308 170.403 447.136 170.441 446.964 170.431ZM441.63 161.628C441.462 161.629 441.296 161.587 441.149 161.505C441.002 161.423 440.879 161.304 440.791 161.161L438.124 156.759C438.054 156.648 438.007 156.523 437.986 156.393C437.965 156.263 437.97 156.13 438 156.002C438.031 155.874 438.087 155.754 438.165 155.647C438.243 155.541 438.341 155.452 438.454 155.384C438.565 155.312 438.69 155.264 438.82 155.241C438.95 155.219 439.084 155.223 439.212 155.254C439.341 155.285 439.462 155.342 439.568 155.421C439.674 155.5 439.763 155.6 439.829 155.714L442.496 160.115C442.582 160.264 442.628 160.432 442.629 160.603C442.631 160.774 442.588 160.942 442.505 161.092C442.421 161.242 442.301 161.367 442.155 161.456C442.009 161.546 441.842 161.595 441.671 161.601L441.63 161.628ZM436.296 152.826C436.127 152.823 435.961 152.777 435.815 152.693C435.668 152.608 435.545 152.489 435.457 152.344L432.79 147.943C432.686 147.724 432.667 147.474 432.736 147.242C432.806 147.01 432.96 146.812 433.167 146.687C433.374 146.561 433.621 146.518 433.859 146.564C434.097 146.611 434.309 146.744 434.454 146.939L437.107 151.299C437.181 151.408 437.232 151.532 437.257 151.662C437.281 151.793 437.278 151.926 437.249 152.056C437.219 152.185 437.163 152.306 437.084 152.413C437.005 152.519 436.905 152.608 436.791 152.674C436.641 152.766 436.471 152.818 436.296 152.826ZM430.962 144.009C430.794 144.009 430.628 143.966 430.482 143.884C430.335 143.802 430.212 143.684 430.123 143.541L427.456 139.14C427.39 139.03 427.346 138.908 427.328 138.781C427.309 138.654 427.315 138.524 427.347 138.4C427.378 138.275 427.433 138.158 427.51 138.055C427.586 137.952 427.682 137.865 427.793 137.799C427.903 137.733 428.025 137.689 428.152 137.671C428.279 137.652 428.408 137.658 428.533 137.69C428.657 137.721 428.774 137.776 428.877 137.853C428.98 137.93 429.067 138.026 429.133 138.136L431.8 142.537C431.892 142.685 431.942 142.854 431.946 143.028C431.949 143.201 431.905 143.372 431.819 143.523C431.733 143.674 431.608 143.799 431.457 143.884C431.306 143.97 431.135 144.013 430.962 144.009Z" fill="#1890FF"/>
<path d="M450.965 177.061C450.797 177.06 450.633 177.014 450.489 176.93C450.344 176.846 450.224 176.725 450.14 176.58L448.765 174.365C448.645 174.145 448.614 173.887 448.678 173.645C448.743 173.402 448.898 173.194 449.112 173.063C449.326 172.932 449.582 172.889 449.827 172.942C450.072 172.995 450.288 173.14 450.429 173.347L451.804 175.576C451.877 175.686 451.928 175.811 451.951 175.941C451.974 176.072 451.97 176.206 451.939 176.336C451.908 176.465 451.851 176.586 451.771 176.692C451.691 176.798 451.59 176.886 451.474 176.951C451.317 177.034 451.141 177.072 450.965 177.061Z" fill="#1890FF"/>
<path d="M74.6384 412.537L134.374 447.212V465.547L74.6384 430.872V412.537Z" fill="#455A64"/>
<path d="M166.572 395.082V429.18L134.374 447.212V465.546L228.232 412.853V358.592L166.572 395.082Z" fill="#263238"/>
<path d="M134.374 447.212L166.572 429.18L106.823 394.505L74.6384 412.537L134.374 447.212Z" fill="#37474F"/>
<path d="M166.572 429.179V395.082L106.823 360.394V394.505L166.572 429.179Z" fill="#455A64"/>
<path d="M166.572 395.082L106.823 360.394L168.497 323.917L228.232 358.592L166.572 395.082Z" fill="#37474F"/>
<path d="M183.482 234.334C183.482 234.334 168.772 254.966 177.515 262.105C186.259 269.243 205.438 263.48 206.208 260.083C206.978 256.685 183.482 234.334 183.482 234.334Z" fill="#263238"/>
<path d="M117.766 414.902L96.1542 443.677L102.162 448.422C102.162 448.422 110.823 446.606 113.889 435.163C115.687 428.516 116.983 421.743 117.766 414.902Z" fill="#FFA8A7"/>
<path d="M119.718 412.949C119.718 412.949 125.726 418.451 123.073 423.279C120.42 428.107 115.814 432.082 115.676 438.505C115.539 444.928 112.322 456.386 105.2 458.201C98.0789 460.017 91.1086 457.541 91.2461 455.01C91.3836 452.479 96.1542 443.677 96.1542 443.677C96.1542 443.677 102.698 447.734 107.524 443.814C112.349 439.894 113.463 423.43 113.463 423.43L119.718 412.949Z" fill="#1890FF"/>
<path opacity="0.2" d="M119.718 412.949C119.718 412.949 125.726 418.451 123.073 423.279C120.42 428.107 115.814 432.082 115.676 438.505C115.539 444.928 112.322 456.386 105.2 458.201C98.0789 460.017 91.1086 457.541 91.2461 455.01C91.3836 452.479 96.1542 443.677 96.1542 443.677C96.1542 443.677 102.698 447.734 107.524 443.814C112.349 439.894 113.463 423.43 113.463 423.43L119.718 412.949Z" fill="black"/>
<path d="M156.646 323.876C156.646 323.876 108.445 344.274 104.541 346.282C100.636 348.29 93.7895 351.784 94.4769 367.505C95.1643 383.226 99.11 422.165 99.11 422.165L125.534 371.274L193.766 338.827L156.646 323.876Z" fill="#1890FF"/>
<path opacity="0.5" d="M156.646 323.876C156.646 323.876 108.445 344.274 104.541 346.282C100.636 348.29 93.7895 351.784 94.4769 367.505C95.1643 383.226 99.11 422.165 99.11 422.165L125.534 371.274L193.766 338.827L156.646 323.876Z" fill="black"/>
<path d="M97.144 402.015C98.1614 413.129 99.0825 422.165 99.0825 422.165L125.506 371.274L174.161 348.098L163.162 339.446C147.613 347.259 125.025 358.592 118.275 362.059C109.696 366.46 107.043 378.908 99.6462 396.197C98.8076 398.095 97.9827 400.021 97.144 402.015Z" fill="#1890FF"/>
<path opacity="0.7" d="M97.144 402.015C98.1614 413.129 99.0825 422.165 99.0825 422.165L125.506 371.274L174.161 348.098L163.162 339.446C147.613 347.259 125.025 358.592 118.275 362.059C109.696 366.46 107.043 378.908 99.6462 396.197C98.8076 398.095 97.9827 400.021 97.144 402.015Z" fill="black"/>
<path d="M160.619 334.274L165.596 341.798L161.705 342.39L160.619 334.274Z" fill="#1890FF"/>
<path opacity="0.7" d="M160.619 334.274L165.596 341.798L161.705 342.39L160.619 334.274Z" fill="black"/>
<path d="M96.4154 455.011C96.4154 455.011 97.1028 456.166 97.1028 461.984C97.1028 467.802 94.7794 469.027 91.906 470.003C89.0327 470.98 80.4951 477.238 78.1579 479.961C75.8207 482.685 66.3895 485.463 57.0683 483.84C47.7471 482.217 45.7812 476.055 50.263 472.107C54.7449 468.16 67.5169 460.966 67.5169 460.966L96.4154 455.011Z" fill="#1890FF"/>
<path d="M208.022 335.924L187.29 331.124C187.29 331.124 129.7 360.008 121.121 364.41C112.542 368.811 109.902 381.273 102.478 398.562C96.9791 411.574 89.6513 429.427 84.8532 440.155C84.8532 440.155 88.2628 449.206 99.0688 446.936C102.726 438.945 109.187 431.807 118.591 419.097C124.625 411.247 128.91 402.196 131.157 392.551C131.514 390.835 132.349 389.254 133.566 387.991C134.782 386.728 136.329 385.834 138.031 385.413C147.531 383.102 166.902 378.082 187.359 371.039C216.189 361.109 208.022 335.924 208.022 335.924Z" fill="#1890FF"/>
<path opacity="0.5" d="M208.022 335.924L187.29 331.124C187.29 331.124 129.7 360.008 121.121 364.41C112.542 368.811 109.902 381.273 102.478 398.562C96.9791 411.574 89.6513 429.427 84.8532 440.155C84.8532 440.155 88.2628 449.206 99.0688 446.936C102.726 438.945 109.187 431.807 118.591 419.097C124.625 411.247 128.91 402.196 131.157 392.551C131.514 390.835 132.349 389.254 133.566 387.991C134.782 386.728 136.329 385.834 138.031 385.413C147.531 383.102 166.902 378.082 187.359 371.039C216.189 361.109 208.022 335.924 208.022 335.924Z" fill="black"/>
<path d="M84.8532 440.142C83.2722 443.676 81.9661 446.441 81.0725 447.995C77.4568 454.281 66.912 461.09 63.2 464.308C59.488 467.527 58.7044 468.737 62.2514 471.46C71.2289 478.338 79.0103 470.828 84.0421 465.959C87.402 462.873 91.0902 460.165 95.0406 457.885C95.3245 457.728 95.5712 457.512 95.7634 457.251C95.9557 456.989 96.089 456.69 96.1542 456.372C96.7114 453.112 97.696 449.939 99.0825 446.936C88.2628 449.206 84.8532 440.142 84.8532 440.142Z" fill="#FFA8A7"/>
<path d="M186.039 355.621L149.785 376.555L89.5001 341.688L125.754 320.313L186.039 355.621Z" fill="#37474F"/>
<path d="M153.69 349.666L140.079 341.798L148.603 336.874L162.214 344.728L153.69 349.666Z" fill="#263238"/>
<path d="M148.246 371.329L166.572 360.545L130.758 338.854L148.246 371.329Z" fill="#263238"/>
<path d="M149.304 306.614L134.8 313.491C130.468 314.588 126.195 315.911 122.001 317.453C122.001 317.453 111.91 321.579 111.442 324.33C110.975 327.081 119.017 333.559 126.07 330.382C127.929 329.405 129.914 328.688 131.968 328.25C136.256 327.842 140.309 326.101 143.558 323.271L155.285 320.052C155.285 320.052 161.334 308.306 149.304 306.614Z" fill="#FFA8A7"/>
<path d="M139.914 326.861C138.237 328.663 133.453 333.202 132.408 334.508C131.363 335.815 128.888 332.445 133.219 327.425C136.962 326.049 140.482 324.13 143.668 321.73C142.551 323.535 141.296 325.25 139.914 326.861Z" fill="#FFA8A7"/>
<path d="M178.986 256.163C175.654 255.63 172.241 256.299 169.356 258.05C166.47 259.801 164.3 262.519 163.231 265.722C161.693 270.345 160.701 275.132 160.275 279.985C159.024 294.923 158.681 302.391 158.681 302.391L143.668 309.268C143.668 309.268 151.779 309.654 151.229 321.097L169.913 316.352L178.986 256.163Z" fill="#1890FF"/>
<path opacity="0.3" d="M178.986 256.163C175.654 255.63 172.241 256.299 169.356 258.05C166.47 259.801 164.3 262.519 163.231 265.722C161.693 270.345 160.701 275.132 160.275 279.985C159.024 294.923 158.681 302.391 158.681 302.391L143.668 309.268C143.668 309.268 151.71 309.654 151.229 321.097L169.913 316.352L178.986 256.163Z" fill="white"/>
<path d="M158.681 302.391C160.366 302.917 161.89 303.864 163.107 305.142C163.107 305.142 161.293 301.704 158.763 300.645L158.681 302.391Z" fill="#1890FF"/>
<path opacity="0.1" d="M158.681 302.391C160.366 302.917 161.89 303.864 163.107 305.142C163.107 305.142 161.293 301.704 158.763 300.645L158.681 302.391Z" fill="white"/>
<path d="M172.415 222.244C172.415 222.244 163.149 219.493 166.489 209.026C169.83 198.559 193.463 194.075 211.253 209.026C211.253 209.026 223.736 207.101 223.736 224.541C223.736 241.982 216.752 249.946 227.503 254.485C227.503 254.485 220.946 260.702 215.639 254.485C215.639 254.485 214.525 268.102 194.412 263.356L172.415 222.244Z" fill="#263238"/>
<path d="M202.661 262.105L213.192 266.588V297.481C209.895 305.386 208.109 313.84 207.926 322.404V337.699C207.926 337.699 186.397 345.374 169.706 337.066C161.623 333.05 156.618 323.876 156.618 323.876C156.618 323.876 165.513 318.635 165.513 312.239C165.34 307.242 164.747 302.268 163.74 297.371C161.793 295.436 160.318 293.078 159.428 290.48C158.539 287.883 158.26 285.115 158.612 282.392C159.794 272.187 178.986 256.163 178.986 256.163L186.135 257.139L202.661 262.105Z" fill="#1890FF"/>
<path d="M202.661 262.105L186.135 257.153V237.126H202.661V262.105Z" fill="#FFA8A7"/>
<path d="M186.135 257.208C189.502 255.949 192.577 254.021 195.177 251.538C197.776 249.056 199.845 246.071 201.258 242.766V237.264H186.135V257.208Z" fill="#F28F8F"/>
<path d="M182.286 210.017C182.286 210.017 167.163 210.897 169.033 236.769C169.899 248.722 172.69 254.911 181.901 254.457C192.322 253.948 207.129 246.782 206.166 226.316C205.204 205.849 182.286 210.017 182.286 210.017Z" fill="#FFA8A7"/>
<path d="M202.661 237.127C202.661 237.127 198.536 238.227 198.536 232.285C198.536 232.285 180.114 231.033 176.044 212.74C176.044 212.74 177.859 207.238 189.366 207.238C200.873 207.238 210.525 217.403 207.527 231.391L202.661 237.127Z" fill="#263238"/>
<path d="M180.114 231.583V240.469L174.917 238.873L180.114 231.583Z" fill="#F28F8F"/>
<path d="M187.936 232.519C187.936 232.878 187.83 233.23 187.63 233.529C187.43 233.828 187.145 234.06 186.813 234.197C186.481 234.334 186.115 234.37 185.763 234.298C185.41 234.227 185.087 234.053 184.834 233.798C184.58 233.542 184.409 233.218 184.34 232.864C184.272 232.511 184.31 232.146 184.449 231.814C184.589 231.483 184.823 231.2 185.124 231.002C185.424 230.805 185.776 230.7 186.135 230.703C186.373 230.703 186.608 230.75 186.828 230.842C187.047 230.933 187.246 231.067 187.414 231.236C187.581 231.405 187.714 231.605 187.803 231.825C187.893 232.045 187.938 232.281 187.936 232.519Z" fill="#263238"/>
<path d="M176.031 231.254C176.033 231.614 175.929 231.967 175.73 232.267C175.532 232.568 175.249 232.803 174.917 232.942C174.585 233.081 174.219 233.118 173.865 233.049C173.512 232.979 173.187 232.806 172.933 232.551C172.678 232.296 172.505 231.972 172.435 231.618C172.366 231.265 172.403 230.898 172.542 230.566C172.681 230.234 172.916 229.95 173.216 229.752C173.517 229.553 173.87 229.449 174.23 229.452C174.706 229.455 175.162 229.646 175.499 229.983C175.836 230.321 176.027 230.777 176.031 231.254Z" fill="#263238"/>
<path d="M172.016 227.485L175.563 225.38C175.563 225.38 174.188 224.005 172.814 224.816C172.428 225.13 172.146 225.552 172.004 226.028C171.862 226.504 171.866 227.011 172.016 227.485Z" fill="#263238"/>
<path d="M180.567 243.454C182.631 243.602 184.685 243.05 186.397 241.886C186.397 241.886 186.795 244.967 184.224 245.544C183.467 245.674 182.688 245.537 182.021 245.155C181.354 244.774 180.84 244.172 180.567 243.454Z" fill="#F28F8F"/>
<path d="M201.203 237.801C201.14 236.296 201.417 234.796 202.014 233.413C202.303 232.551 202.839 231.792 203.555 231.232C204.271 230.672 205.136 230.335 206.043 230.263C210.676 230.139 211.308 234.61 211.239 236.205C211.074 240.331 207.692 244.898 201.396 245.077L201.203 237.801Z" fill="#FFA8A7"/>
<path d="M186.135 257.208L181.255 263.549C180.707 264.262 180.321 265.087 180.125 265.966C179.929 266.844 179.927 267.755 180.119 268.634C180.312 269.513 180.694 270.339 181.239 271.055C181.785 271.771 182.48 272.359 183.276 272.778C185.44 273.91 187.93 274.255 190.32 273.753C192.71 273.252 194.851 271.934 196.378 270.027L202.661 262.173L186.135 257.208Z" fill="#FFA8A7"/>
<path d="M186.039 333.407L172.291 340.931C170.177 340.774 168.054 340.774 165.939 340.931C163.492 341.234 157.003 342.416 155.326 342.485C153.649 342.554 155.257 345.69 159.657 345.415C159.657 345.415 149.744 349.954 149.387 352.677C149.029 355.401 157.333 361.59 164.262 358.179C166.072 357.124 168.02 356.328 170.05 355.813C174.324 355.207 178.303 353.284 181.434 350.311L193.023 346.598C193.023 346.598 198.11 334.59 186.039 333.407Z" fill="#FFA8A7"/>
<path d="M213.192 266.588C213.192 266.588 204.764 272.338 206.208 290.218C207.047 301.036 207.047 311.903 206.208 322.72L186.025 333.407C188.19 334.848 189.956 336.812 191.158 339.118C192.359 341.425 192.959 343.998 192.899 346.598C192.899 346.598 221.88 340.628 223.613 333.875C225.345 327.122 225.977 294.812 225.977 289.201C225.977 283.589 223.723 271.072 213.192 266.588Z" fill="#1890FF"/>
<path opacity="0.3" d="M213.192 266.588C213.192 266.588 204.764 272.338 206.208 290.218C207.047 301.036 207.047 311.903 206.208 322.72L186.025 333.407C188.19 334.848 189.956 336.812 191.158 339.118C192.359 341.425 192.959 343.998 192.899 346.598C192.899 346.598 221.88 340.628 223.613 333.875C225.345 327.122 225.977 294.812 225.977 289.201C225.977 283.589 223.723 271.072 213.192 266.588Z" fill="white"/>
<path d="M206.221 322.72C208.442 322.674 210.649 323.076 212.711 323.903C210.856 322.461 208.666 321.515 206.345 321.152L206.221 322.72Z" fill="#1890FF"/>
<path opacity="0.1" d="M206.221 322.72C208.442 322.674 210.649 323.076 212.711 323.903C210.856 322.461 208.666 321.515 206.345 321.152L206.221 322.72Z" fill="white"/>
<path d="M81.1 301.718L87.3966 342.981C87.3901 343.003 87.3901 343.027 87.3966 343.05L150.019 379.389C150.035 379.396 150.052 379.399 150.069 379.398C150.086 379.397 150.102 379.391 150.116 379.381C150.13 379.371 150.141 379.358 150.148 379.342C150.156 379.327 150.158 379.31 150.157 379.293L144.039 339.253C143.908 338.407 143.594 337.599 143.119 336.886C142.645 336.174 142.02 335.573 141.289 335.127L83.8771 299.847C83.5772 299.657 83.2284 299.559 82.8735 299.564C82.5185 299.569 82.1727 299.677 81.8783 299.875C81.5838 300.074 81.3535 300.353 81.2153 300.681C81.0771 301.008 81.037 301.368 81.1 301.718Z" fill="#455A64"/>
<path d="M150.06 379.403L183.496 360.023C184.267 359.575 184.908 358.934 185.354 358.161C185.801 357.389 186.037 356.513 186.039 355.621L149.772 376.555L150.06 379.403Z" fill="#263238"/>
<path d="M117.326 341.495C117.326 344.452 115.264 345.621 112.707 344.163C111.362 343.286 110.243 342.104 109.441 340.713C108.638 339.322 108.175 337.762 108.088 336.158C108.088 333.215 110.163 332.032 112.707 333.49C114.052 334.366 115.172 335.548 115.974 336.939C116.777 338.33 117.24 339.891 117.326 341.495Z" fill="#37474F"/>
<path opacity="0.2" d="M178.986 299.586C178.986 299.586 191.621 303.024 198.33 293.534C198.33 293.534 193.986 305.789 178.986 299.586Z" fill="black"/>
</g>
<defs>
<clipPath id="clip0_495_6074">
<rect width="613" height="628" fill="white"/>
</clipPath>
</defs>
</svg>
