<svg width="33" height="34" viewBox="0 0 33 34" fill="none" xmlns="http://www.w3.org/2000/svg">
<path d="M16.0166 22.3884C16.0437 22.423 16.0784 22.451 16.1179 22.4703C16.1574 22.4895 16.2008 22.4996 16.2448 22.4996C16.2887 22.4996 16.3321 22.4895 16.3716 22.4703C16.4111 22.451 16.4458 22.423 16.4729 22.3884L20.5282 17.2577C20.6767 17.0694 20.5427 16.7906 20.3001 16.7906H17.6171V4.53771C17.6171 4.3784 17.4867 4.24805 17.3274 4.24805H15.1549C14.9956 4.24805 14.8652 4.3784 14.8652 4.53771V16.787H12.1894C11.9468 16.787 11.8129 17.0658 11.9613 17.2541L16.0166 22.3884ZM29.497 21.1211H27.3245C27.1652 21.1211 27.0348 21.2515 27.0348 21.4108V26.9869H5.45467V21.4108C5.45467 21.2515 5.32433 21.1211 5.16501 21.1211H2.99251C2.83319 21.1211 2.70284 21.2515 2.70284 21.4108V28.58C2.70284 29.2209 3.22062 29.7387 3.86151 29.7387H28.628C29.2689 29.7387 29.7867 29.2209 29.7867 28.58V21.4108C29.7867 21.2515 29.6563 21.1211 29.497 21.1211Z" fill="white"/>
</svg>
