<svg width="33" height="34" viewBox="0 0 33 34" fill="none" xmlns="http://www.w3.org/2000/svg">
<path d="M16.5503 22.3884C16.5774 22.423 16.612 22.451 16.6515 22.4703C16.6911 22.4895 16.7345 22.4996 16.7784 22.4996C16.8224 22.4996 16.8658 22.4895 16.9053 22.4703C16.9448 22.451 16.9794 22.423 17.0065 22.3884L21.0619 17.2577C21.2103 17.0694 21.0764 16.7906 20.8338 16.7906H18.1507V4.53771C18.1507 4.3784 18.0204 4.24805 17.8611 4.24805H15.6886C15.5292 4.24805 15.3989 4.3784 15.3989 4.53771V16.787H12.7231C12.4805 16.787 12.3465 17.0658 12.495 17.2541L16.5503 22.3884ZM30.0307 21.1211H27.8582C27.6989 21.1211 27.5685 21.2515 27.5685 21.4108V26.9869H5.98834V21.4108C5.98834 21.2515 5.85799 21.1211 5.69868 21.1211H3.52618C3.36686 21.1211 3.23651 21.2515 3.23651 21.4108V28.58C3.23651 29.2209 3.75429 29.7387 4.39518 29.7387H29.1617C29.8026 29.7387 30.3203 29.2209 30.3203 28.58V21.4108C30.3203 21.2515 30.19 21.1211 30.0307 21.1211Z" fill="#13377D"/>
</svg>
