<svg width="243" height="48" viewBox="0 0 243 48" fill="none" xmlns="http://www.w3.org/2000/svg">
<path d="M57.0805 2.10051V29.4818H74.7369V25.3221H62.4699V2.10051H57.0805ZM77.9941 29.4818H83.3834V9.77375H77.994V29.4818M80.6887 8.07754C82.3779 8.07754 83.7856 6.70446 83.7856 4.96787C83.7856 3.27172 82.3779 1.8582 80.6887 1.8582C78.9592 1.8582 77.5918 3.27172 77.5918 4.96787C77.5918 6.70446 78.9592 8.07754 80.6887 8.07754ZM92.7688 12.0757H92.6883V0.404297H87.2989V29.4818H92.5677L92.6883 27.1799H92.7688C94.458 29.078 96.1472 29.8857 98.9223 29.8857C104.151 29.8857 107.61 25.1605 107.61 19.2643C107.61 13.57 104.513 9.3699 99.1636 9.3699C96.3081 9.3699 94.6188 10.218 92.7688 12.0757M92.6883 19.1835C92.6883 15.7912 94.2167 13.5296 97.1125 13.5296C100.33 13.5296 101.939 15.8315 101.939 19.5874C101.939 23.3029 100.37 25.726 97.1929 25.726C94.4177 25.726 92.6883 23.5452 92.6883 20.072V19.1835ZM122.071 9.3699C119.497 9.53138 117.043 11.1065 115.917 13.2873H115.837L115.716 9.77375H110.447V29.4818H115.837V22.0509C115.837 18.0931 116.561 16.6796 117.808 15.7912C118.894 15.0239 120.181 14.7008 121.95 14.62L122.071 9.3699M141.9 18.4566C141.9 13.57 138.924 9.3699 133.776 9.3699C127.582 9.3699 123.6 13.6508 123.6 20.1528C123.6 26.4933 127.703 29.8857 133.776 29.8857C136.632 29.8857 138.643 29.4414 140.533 28.5934L139.97 24.5548C138.2 25.2818 136.39 25.726 134.46 25.726C131.202 25.726 129.111 24.2317 128.909 21.1625H141.659C141.82 20.4355 141.9 19.3047 141.9 18.4566M133.213 13.5296C135.546 13.5296 136.632 15.4277 136.712 17.4469H129.111C129.513 15.1853 131.081 13.5296 133.213 13.5296Z" fill="#18A303"/>
<path d="M158.262 1.69615C151.022 1.69615 145.07 6.9867 145.07 15.7907C145.07 24.5948 151.022 29.8852 158.262 29.8852C165.501 29.8852 171.454 24.5948 171.454 15.7907C171.454 6.9867 165.501 1.69615 158.262 1.69615M158.262 4.44242C163.651 4.44242 167.753 8.48093 167.753 15.7907C167.753 23.1004 163.651 27.1391 158.262 27.1391C152.872 27.1391 148.77 23.1004 148.77 15.7907C148.77 8.48093 152.872 4.44242 158.262 4.44242M176.604 8.68285V9.93477H173.427V12.5195H176.604V29.4814H179.983V12.5195H184.97V9.93477H179.983V8.15785C179.983 4.64434 181.471 2.58467 184.166 2.58467C185.413 2.58467 186.217 2.78659 186.981 3.06928L187.303 0.565383C186.579 0.282692 185.211 0 184.125 0C179.339 0 176.604 3.10967 176.604 8.68285" fill="black"/>
<path d="M187.836 8.68285V9.93477H184.659V12.5195H187.836V29.4814H191.214V12.5195H196.202V9.93477H191.214V8.15785C191.214 4.64434 192.703 2.58467 195.397 2.58467C196.644 2.58467 197.449 2.78659 198.213 3.06928L198.534 0.565383C197.811 0.282692 196.443 0 195.357 0C190.571 0 187.836 3.10967 187.836 8.68285ZM200.115 29.4814H203.493V9.93477H200.115V29.4814ZM201.804 7.06747C202.971 7.06747 203.896 6.13863 203.896 4.96742C203.896 3.79627 202.971 2.86736 201.804 2.86736C200.638 2.86736 199.713 3.79627 199.713 4.96742C199.713 6.13863 200.638 7.06747 201.804 7.06747ZM210.518 19.6274C210.518 14.7003 213.454 12.1157 217.275 12.1157C219.286 12.1157 221.056 12.6003 222.504 13.2868L222.825 10.7021C221.619 10.0964 219.688 9.53093 217.557 9.53093C211.524 9.53093 206.979 13.206 206.979 20.0716C206.979 26.5332 211.081 29.8852 216.511 29.8852C218.924 29.8852 220.654 29.6026 222.624 28.7544L222.303 26.1698C220.613 26.9371 218.803 27.3005 217.114 27.3005C213.213 27.3005 210.518 24.837 210.518 19.6274M241.882 20.4754C241.962 19.7485 242.002 19.1427 242.002 18.5369C242.002 13.5291 239.388 9.53093 234.361 9.53093C228.931 9.53093 224.949 14.0541 224.949 20.0716C224.949 26.6948 228.931 29.8852 234.361 29.8852C236.774 29.8852 238.584 29.5218 240.474 28.7544L240.152 26.1698C238.664 26.8967 236.532 27.3005 234.843 27.3005C230.942 27.3005 228.408 24.9179 228.328 20.4754H241.882M234.079 12.1157C237.055 12.1157 238.664 14.5792 238.664 17.81H228.489C228.971 14.3773 230.861 12.1157 234.079 12.1157" fill="black"/>
<path d="M65.1492 36.2708H57.0804V37.4302H60.4096V47.8299H61.7872V37.4302H65.1492V36.2708M67.8075 40.9422V35.5547H66.4299V47.83H67.8075V43.2949C67.8075 41.59 68.8079 40.567 70.0379 40.567C71.3171 40.567 71.6286 41.3172 71.6286 42.9028V47.8299H73.0063V42.4595C73.0063 40.4477 72.1207 39.4077 70.4315 39.4077C69.2507 39.4077 68.3979 40.0897 67.8403 40.9421H67.8075M81.761 44.028C81.7938 43.7211 81.8102 43.4654 81.8102 43.2097C81.8102 41.0957 80.7442 39.4078 78.6942 39.4078C76.4802 39.4078 74.8567 41.3173 74.8567 43.8576C74.8567 46.6536 76.4802 48.0004 78.6942 48.0004C79.6782 48.0004 80.4162 47.847 81.187 47.5231L81.0558 46.432C80.449 46.7388 79.5798 46.9092 78.891 46.9092C77.3003 46.9092 76.267 45.9034 76.2342 44.028H81.761M78.5794 40.4989C79.793 40.4989 80.449 41.5389 80.449 42.9028H76.2998C76.4967 41.4537 77.2674 40.4989 78.5794 40.4989M87.4744 36.4242V47.7276C88.2779 47.847 89.4587 47.9152 90.3443 47.9152C93.7063 47.9152 96.8714 45.8864 96.8714 41.6923C96.8714 38.0098 94.4443 36.1856 90.3771 36.1856C89.4751 36.1856 88.4255 36.2538 87.4743 36.4242M88.8519 37.4472C89.3603 37.3619 89.9179 37.3448 90.5247 37.3448C93.6571 37.3448 95.3627 39.0839 95.3627 41.8628C95.3627 45.1533 93.1651 46.7559 90.5083 46.7559C89.9999 46.7559 89.4259 46.7389 88.8519 46.6876V37.4472M101.996 39.4078C99.602 39.4078 98.1752 41.2831 98.1752 43.7041C98.1752 46.1251 99.6021 48.0004 101.996 48.0004C104.391 48.0004 105.818 46.1251 105.818 43.7041C105.818 41.2831 104.391 39.4078 101.996 39.4078ZM101.996 46.9092C100.34 46.9092 99.6185 45.426 99.6185 43.7041C99.6185 41.9821 100.34 40.4989 101.996 40.4989C103.653 40.4989 104.374 41.9821 104.374 43.7041C104.374 45.426 103.653 46.9092 101.996 46.9092ZM108.619 43.67C108.619 41.5901 109.816 40.4989 111.374 40.4989C112.194 40.4989 112.916 40.7035 113.506 40.9934L113.638 39.9022C113.146 39.6465 112.358 39.4078 111.489 39.4078C109.029 39.4078 107.176 40.9592 107.176 43.8576C107.176 46.5853 108.849 48.0004 111.063 48.0004C112.047 48.0004 112.752 47.8811 113.556 47.5231L113.424 46.432C112.736 46.7559 111.998 46.9092 111.309 46.9092C109.718 46.9092 108.619 45.8693 108.619 43.67ZM120.49 46.466L120.539 47.8299H121.868V39.5782H120.49V44.1133C120.49 45.8181 119.49 46.8411 118.26 46.8411C116.981 46.8411 116.669 46.0909 116.669 44.5054V39.5783H115.291V44.9487C115.291 46.9604 116.177 48.0004 117.866 48.0004C119.047 48.0004 119.9 47.3185 120.457 46.466H120.49M134.05 42.7323V47.8299H135.428V42.2891C135.428 40.4478 134.608 39.4079 133.033 39.4079C131.902 39.4079 131 40.158 130.475 41.2662H130.426C130.114 40.1069 129.458 39.4079 128.195 39.4079C127.064 39.4079 126.342 40.0387 125.784 40.9422H125.752L125.702 39.5783H124.374V47.83H125.752V43.6359C125.752 41.7776 126.539 40.5671 127.769 40.5671C128.802 40.5671 129.212 41.3173 129.212 42.7324V47.83H130.59V43.6359C130.59 41.7435 131.377 40.5671 132.607 40.5671C133.64 40.5671 134.05 41.3173 134.05 42.7324M144.158 44.028C144.19 43.7211 144.207 43.4654 144.207 43.2097C144.207 41.0957 143.141 39.4078 141.091 39.4078C138.877 39.4078 137.253 41.3173 137.253 43.8576C137.253 46.6536 138.877 48.0004 141.091 48.0004C142.075 48.0004 142.813 47.847 143.584 47.5231L143.452 46.432C142.846 46.7388 141.976 46.9092 141.288 46.9092C139.697 46.9092 138.664 45.9034 138.631 44.028H144.158M140.976 40.4989C142.19 40.4989 142.846 41.5389 142.846 42.9028H138.696C138.893 41.4537 139.664 40.4989 140.976 40.4989ZM147.533 40.9422L147.484 39.5783H146.155V47.83H147.533V43.2949C147.533 41.59 148.533 40.567 149.763 40.567C151.042 40.567 151.354 41.3172 151.354 42.9028V47.8299H152.732V42.4595C152.732 40.4477 151.846 39.4077 150.157 39.4077C148.976 39.4077 148.123 40.0897 147.566 40.9421H147.533M158.879 39.5783H156.976V37.7541H155.599V39.5783H154.336V40.6694H155.599V45.8011C155.599 47.3014 156.386 48.0004 157.665 48.0004C158.338 48.0004 158.78 47.9322 159.125 47.7788L158.977 46.7388C158.698 46.8581 158.403 46.9092 158.092 46.9092C157.288 46.9092 156.976 46.432 156.976 45.4431V40.6694H158.879V39.5783M165.983 47.8299V42.613H169.968V41.4538H165.983V37.4302H170.526V36.2708H164.605V47.8299H165.983ZM175.508 39.4078C173.113 39.4078 171.687 41.2831 171.687 43.7041C171.687 46.1251 173.113 48.0004 175.508 48.0004C177.902 48.0004 179.329 46.1251 179.329 43.7041C179.329 41.2831 177.902 39.4078 175.508 39.4078ZM175.508 46.9092C173.851 46.9092 173.13 45.426 173.13 43.7041C173.13 41.9821 173.851 40.4989 175.508 40.4989C177.164 40.4989 177.886 41.9821 177.886 43.7041C177.886 45.426 177.164 46.9092 175.508 46.9092ZM186.378 46.466L186.427 47.8299H187.756V39.5782H186.378V44.1133C186.378 45.8181 185.378 46.8411 184.148 46.8411C182.869 46.8411 182.557 46.0909 182.557 44.5054V39.5783H181.179V44.9487C181.179 46.9604 182.065 48.0004 183.754 48.0004C184.935 48.0004 185.788 47.3185 186.345 46.466H186.378M191.64 40.9422L191.59 39.5783H190.262V47.83H191.64V43.2949C191.64 41.59 192.64 40.567 193.87 40.567C195.149 40.567 195.461 41.3172 195.461 42.9028V47.8299H196.838V42.4595C196.838 40.4477 195.953 39.4077 194.264 39.4077C193.083 39.4077 192.23 40.0897 191.672 40.9421H191.64M204.822 40.857C204.232 39.8511 203.379 39.4078 202.264 39.4078C200.132 39.4078 198.689 41.2491 198.689 43.8576C198.689 46.3467 199.984 48.0004 202.166 48.0004C203.314 48.0004 204.199 47.4548 204.822 46.5513H204.855L204.904 47.8299H206.233V35.5547H204.855V40.857H204.822M204.855 44.1985C204.855 45.6307 204.002 46.9092 202.592 46.9092C201.001 46.9092 200.132 45.6136 200.132 43.7211C200.132 41.7775 200.968 40.4989 202.559 40.4989C203.822 40.4989 204.855 41.6242 204.855 43.2097V44.1985M211.5 39.4078C210.696 39.4078 209.893 39.5442 209.04 39.8852L209.171 40.9763C209.975 40.6524 210.631 40.4989 211.303 40.4989C212.517 40.4989 213.025 41.232 213.025 42.3914V42.63C212.648 42.5619 212.287 42.5277 211.713 42.5277C209.696 42.5277 208.171 43.5677 208.171 45.3749C208.171 47.0627 209.368 48.0004 210.647 48.0004C211.697 48.0004 212.566 47.4378 212.992 46.5513H213.025L213.074 47.8299H214.403V42.2379C214.403 40.3796 213.337 39.4078 211.5 39.4078M213.025 44.2838C213.025 45.9204 212.222 46.9092 211.057 46.9092C210.221 46.9092 209.647 46.2785 209.647 45.2726C209.647 44.1815 210.319 43.4654 211.926 43.4654C212.336 43.4654 212.697 43.5165 213.025 43.5677V44.2838ZM220.539 39.5783H218.636V37.7541H217.259V39.5783H215.996V40.6694H217.259V45.8011C217.259 47.3014 218.046 48.0004 219.325 48.0004C219.997 48.0004 220.44 47.9322 220.785 47.7788L220.637 46.7388C220.358 46.8581 220.063 46.9092 219.751 46.9092C218.948 46.9092 218.636 46.432 218.636 45.4431V40.6694H220.539V39.5783M222.549 47.8299H223.927V39.5782H222.549V47.8299ZM223.238 38.3678C223.714 38.3678 224.091 37.9757 224.091 37.4813C224.091 36.9869 223.714 36.5948 223.238 36.5948C222.763 36.5948 222.385 36.9869 222.385 37.4813C222.385 37.9757 222.763 38.3678 223.238 38.3678ZM229.672 39.4078C227.278 39.4078 225.851 41.2831 225.851 43.7041C225.851 46.1251 227.278 48.0004 229.672 48.0004C232.067 48.0004 233.493 46.1251 233.493 43.7041C233.493 41.2831 232.067 39.4078 229.672 39.4078ZM229.672 46.9092C228.016 46.9092 227.294 45.426 227.294 43.7041C227.294 41.9821 228.016 40.4989 229.672 40.4989C231.329 40.4989 232.05 41.9821 232.05 43.7041C232.05 45.426 231.329 46.9092 229.672 46.9092ZM236.803 40.9422L236.754 39.5783H235.426V47.83H236.803V43.2949C236.803 41.59 237.804 40.567 239.034 40.567C240.313 40.567 240.625 41.3172 240.625 42.9028V47.8299H242.002V42.4595C242.002 40.4477 241.117 39.4077 239.427 39.4077C238.247 39.4077 237.394 40.0897 236.836 40.9421H236.803" fill="black"/>
<path fill-rule="evenodd" clip-rule="evenodd" d="M27.8618 1.46908C27.4116 1.45775 26.9681 1.73925 26.7922 2.14804C26.6162 2.55684 26.7189 3.0671 27.0399 3.37861L36.7014 13.0706C37.013 13.3827 37.5204 13.4862 37.9318 13.3215C38.3434 13.1569 38.6342 12.7339 38.6373 12.296V2.58601C38.6385 2.00094 38.0981 1.46807 37.505 1.46908H27.8618Z" fill="black"/>
<path fill-rule="evenodd" clip-rule="evenodd" d="M1.29621 1.46875C0.702074 1.4771 0.16759 2.02053 0.168604 2.61485V46.8511C0.167411 47.4452 0.702074 47.9884 1.29621 47.9971H37.4912C38.0915 47.9971 38.6383 47.4514 38.6373 46.8511V18.3646C38.6391 18.064 38.5165 17.7645 38.3045 17.5513L22.6472 1.81998C22.437 1.60136 22.137 1.47179 21.8338 1.46875H1.29621Z" fill="white"/>
<path fill-rule="evenodd" clip-rule="evenodd" d="M1.29621 1.46875C0.995309 1.47313 0.708245 1.59586 0.497191 1.81038C0.286137 2.02489 0.168086 2.31392 0.168604 2.61485V46.8511C0.168117 47.152 0.286183 47.441 0.497233 47.6555C0.708283 47.8699 0.995329 47.9927 1.29621 47.997H37.4912C37.6418 47.9973 37.7909 47.9678 37.9301 47.9103C38.0692 47.8528 38.1956 47.7684 38.3021 47.6619C38.4086 47.5555 38.493 47.429 38.5505 47.2899C38.608 47.1507 38.6375 47.0016 38.6373 46.851V18.3646C38.6382 18.2138 38.6092 18.0643 38.5521 17.9247C38.495 17.7852 38.4109 17.6582 38.3045 17.5513L22.6472 1.81998C22.5417 1.71031 22.4155 1.62276 22.2759 1.56245C22.1362 1.50214 21.9859 1.47029 21.8338 1.46875H1.29621ZM2.44237 3.76095H21.3532L36.345 18.8268V45.7049H2.44243L2.44237 3.76095Z" fill="black"/>
</svg>
