<svg width="49" height="48" viewBox="0 0 49 48" fill="none" xmlns="http://www.w3.org/2000/svg">
<path d="M41.7671 0H14.1328L24.5476 10.408C24.7817 10.3943 25.0175 10.3874 25.2548 10.3874C27.6269 10.3863 29.9522 11.0464 31.9691 12.2935C33.986 13.5406 35.6144 15.3251 36.6711 17.4462C36.8746 17.4329 37.0804 17.4256 37.2875 17.4256C38.9986 17.426 40.6755 17.9043 42.1288 18.8065C43.5821 19.7086 44.7538 20.9987 45.5115 22.531L48.7813 19.2653V7.36964C48.7498 5.48674 48.0113 3.68435 46.7123 2.31947C45.4132 0.954589 43.6483 0.126776 41.7671 0V0Z" fill="#00B4FF"/>
<path d="M32.2133 35.8105L43.9348 47.5187H43.9433L32.2242 35.8142H32.2133V35.8105Z" fill="#00B4FF"/>
<path d="M45.5164 22.5313L32.2242 35.8107L43.9433 47.5152C45.3518 46.9838 46.5673 46.0409 47.4313 44.8094C48.2954 43.5779 48.7679 42.1149 48.7874 40.6113V19.2607L45.5164 22.5313Z" fill="#FF6E6E"/>
<path d="M6.01051 31.4934C5.6563 30.6252 5.4749 29.6963 5.47645 28.7587C5.47645 24.8628 8.54396 21.7047 12.3272 21.7047C12.4156 21.7047 12.5028 21.7047 12.59 21.7108C12.922 18.7175 14.3063 15.9389 16.4967 13.8692C18.6872 11.7995 21.5417 10.573 24.5524 10.4078L14.1377 0.00585938H7.73742C5.83374 0.127048 4.04779 0.968067 2.74295 2.3578C1.43812 3.74754 0.712418 5.58158 0.71351 7.48677V36.7851L6.01051 31.4934Z" fill="#23D3FF"/>
<path d="M32.2133 35.8102H12.3272C11.2932 35.8112 10.2731 35.5714 9.34808 35.1099C7.83361 34.3475 6.64766 33.062 6.01051 31.4922L0.713509 36.7851V40.4995C0.713509 42.4884 1.50456 44.3958 2.91265 45.8022C3.60986 46.4985 4.43757 47.0509 5.34852 47.4277C6.25947 47.8046 7.23582 47.9986 8.22183 47.9986H41.279C42.1862 47.9981 43.0859 47.8342 43.9348 47.5148L32.2133 35.8102Z" fill="#00F5D0"/>
<path d="M48.7498 7.36964C48.7184 5.4851 47.9787 3.68124 46.6775 2.31607C45.3764 0.950889 43.6089 0.124178 41.7259 0L7.69625 0C5.79318 0.122883 4.00823 0.96442 2.70374 2.35378C1.39925 3.74315 0.672974 5.57623 0.672333 7.48091H0.672333V40.5009C0.672333 42.4898 1.46339 44.3972 2.87147 45.8036C4.27955 47.2099 6.18932 48 8.18066 48H41.2415C42.1487 47.9996 43.0484 47.8357 43.8973 47.5162H43.9057C45.3143 46.9849 46.5299 46.042 47.394 44.8105C48.2581 43.5789 48.7306 42.1159 48.7498 40.6122V19.5072V7.36964Z" fill="url(#paint0_radial_502_6390)"/>
<path d="M45.5467 22.546C44.7889 21.0137 43.6172 19.7236 42.1639 18.8214C40.7107 17.9192 39.0337 17.4409 37.3226 17.4406C37.1155 17.4406 36.9109 17.4478 36.7074 17.4611C35.6504 15.34 34.0218 13.5555 32.0047 12.3085C29.9877 11.0614 27.6622 10.4013 25.2899 10.4023C25.0477 10.4023 24.8176 10.4096 24.5827 10.4229C21.5719 10.5881 18.7174 11.8147 16.527 13.8843C14.3366 15.954 12.9522 18.7326 12.6203 21.7259C12.5331 21.7259 12.4459 21.7199 12.3575 21.7199C8.57424 21.7199 5.50672 24.8779 5.50672 28.7738C5.50517 29.7114 5.68657 30.6403 6.04078 31.5086C6.67794 33.0784 7.86388 34.3638 9.37835 35.1262C10.3034 35.5878 11.3234 35.8276 12.3575 35.8266H32.2545L45.5479 22.5472L45.5467 22.546Z" fill="white"/>
<path fill-rule="evenodd" clip-rule="evenodd" d="M41.4486 21.6279C42.8736 21.6073 44.2837 21.92 45.566 22.5411L32.2678 35.8205V30.3861H32.2799C32.3862 28.0284 33.3985 25.8024 35.1062 24.1711C36.8139 22.5398 39.0856 21.629 41.4486 21.6279Z" fill="#FFD12F"/>
<defs>
<radialGradient id="paint0_radial_502_6390" cx="0" cy="0" r="1" gradientUnits="userSpaceOnUse" gradientTransform="translate(24.7111 24.0006) scale(24.0339 24.0042)">
<stop stop-color="#261C38" stop-opacity="0.6"/>
<stop offset="0.28" stop-color="#261C38" stop-opacity="0.3"/>
<stop offset="0.86" stop-color="#302640" stop-opacity="0.05"/>
<stop offset="1" stop-color="#302640" stop-opacity="0"/>
</radialGradient>
</defs>
</svg>
