<svg width="165" height="48" viewBox="0 0 165 48" fill="none" xmlns="http://www.w3.org/2000/svg">
<g clip-path="url(#clip0_492_5682)">
<path d="M42.0191 0H14.3849L24.7996 10.408C25.0338 10.3943 25.2695 10.3874 25.5069 10.3874C27.879 10.3863 30.2043 11.0464 32.2212 12.2935C34.2381 13.5406 35.8665 15.3251 36.9231 17.4462C37.1266 17.4329 37.3325 17.4256 37.5396 17.4256C39.2507 17.426 40.9276 17.9043 42.3809 18.8065C43.8341 19.7086 45.0058 20.9987 45.7636 22.531L49.0333 19.2653V7.36964C49.0018 5.48674 48.2634 3.68435 46.9643 2.31947C45.6652 0.954589 43.9003 0.126776 42.0191 0V0Z" fill="#00B4FF"/>
<path d="M32.4654 35.8105L44.1868 47.5187H44.1953L32.4763 35.8142H32.4654V35.8105Z" fill="#00B4FF"/>
<path d="M45.7684 22.5313L32.4763 35.8107L44.1953 47.5152C45.6038 46.9838 46.8193 46.0409 47.6834 44.8094C48.5475 43.5779 49.02 42.1149 49.0394 40.6113V19.2607L45.7684 22.5313Z" fill="#FF6E6E"/>
<path d="M6.26255 31.4934C5.90834 30.6252 5.72694 29.6963 5.72849 28.7587C5.72849 24.8628 8.796 21.7047 12.5792 21.7047C12.6676 21.7047 12.7548 21.7047 12.842 21.7108C13.174 18.7175 14.5583 15.9389 16.7488 13.8692C18.9392 11.7995 21.7937 10.573 24.8045 10.4078L14.3897 0.00585938H7.98946C6.08578 0.127048 4.29983 0.968067 2.99499 2.3578C1.69015 3.74754 0.964456 5.58158 0.965547 7.48677V36.7851L6.26255 31.4934Z" fill="#23D3FF"/>
<path d="M32.4654 35.8102H12.5792C11.5452 35.8112 10.5252 35.5714 9.60012 35.1099C8.08565 34.3475 6.8997 33.062 6.26255 31.4922L0.965546 36.7851V40.4995C0.965546 42.4884 1.7566 44.3958 3.16468 45.8022C3.86189 46.4985 4.68961 47.0509 5.60056 47.4277C6.51151 47.8046 7.48786 47.9986 8.47387 47.9986H41.5311C42.4383 47.9981 43.3379 47.8342 44.1868 47.5148L32.4654 35.8102Z" fill="#00F5D0"/>
<path d="M49.0019 7.36964C48.9704 5.4851 48.2307 3.68124 46.9296 2.31607C45.6284 0.950889 43.861 0.124178 41.9779 0L7.94829 0C6.04522 0.122883 4.26028 0.96442 2.95579 2.35378C1.6513 3.74315 0.925018 5.57623 0.924377 7.48091H0.924377V40.5009C0.924377 42.4898 1.71543 44.3972 3.12351 45.8036C4.5316 47.2099 6.44137 48 8.4327 48H41.4935C42.4007 47.9996 43.3004 47.8357 44.1493 47.5162H44.1578C45.5664 46.9849 46.782 46.042 47.646 44.8105C48.5101 43.5789 48.9826 42.1159 49.0019 40.6122V40.6122V19.5072V7.36964Z" fill="url(#paint0_radial_492_5682)"/>
<path d="M45.7987 22.546C45.0409 21.0137 43.8692 19.7236 42.416 18.8214C40.9627 17.9192 39.2858 17.4409 37.5747 17.4406C37.3676 17.4406 37.1629 17.4478 36.9595 17.4611C35.9025 15.34 34.2738 13.5555 32.2568 12.3085C30.2397 11.0614 27.9142 10.4013 25.542 10.4023C25.2998 10.4023 25.0697 10.4096 24.8347 10.4229C21.824 10.5881 18.9695 11.8147 16.7791 13.8843C14.5886 15.954 13.2043 18.7326 12.8723 21.7259C12.7851 21.7259 12.6979 21.7199 12.6095 21.7199C8.82628 21.7199 5.75877 24.8779 5.75877 28.7738C5.75722 29.7114 5.93862 30.6403 6.29283 31.5086C6.92998 33.0784 8.11593 34.3638 9.6304 35.1262C10.5554 35.5878 11.5755 35.8276 12.6095 35.8266H32.5066L45.7999 22.5472L45.7987 22.546Z" fill="white"/>
<path fill-rule="evenodd" clip-rule="evenodd" d="M41.7006 21.6279C43.1257 21.6073 44.5357 21.92 45.8181 22.5411L32.5199 35.8205V30.3861H32.532C32.6383 28.0284 33.6506 25.8024 35.3583 24.1711C37.066 22.5398 39.3376 21.629 41.7006 21.6279V21.6279Z" fill="#FFD12F"/>
<path fill-rule="evenodd" clip-rule="evenodd" d="M117.973 17.0663C117.272 16.2916 116.407 15.6829 115.441 15.2846C114.36 14.8462 113.202 14.6302 112.035 14.6496C110.761 14.6496 109.624 14.8613 108.625 15.2846C107.66 15.6849 106.795 16.2933 106.093 17.0663C105.383 17.863 104.845 18.7967 104.511 19.8095C103.921 21.6338 103.807 23.5784 104.18 25.4592C104.317 26.1565 104.536 26.8355 104.83 27.4827C105.122 28.1225 105.494 28.723 105.936 29.2704C106.381 29.8242 106.906 30.3089 107.494 30.7085C108.118 31.1301 108.803 31.4525 109.526 31.664C111.166 32.122 112.9 32.122 114.54 31.664C115.262 31.4508 115.947 31.1286 116.572 30.7085C117.161 30.3107 117.687 29.8258 118.13 29.2704C118.568 28.7218 118.937 28.1214 119.228 27.4827C119.523 26.8355 119.742 26.1565 119.882 25.4592C120.253 23.5782 120.138 21.6339 119.549 19.8095C119.215 18.7977 118.679 17.8643 117.973 17.0663V17.0663ZM117.529 26.0772C117.314 26.854 116.944 27.5788 116.439 28.2072C115.947 28.8049 115.32 29.2771 114.61 29.5849C113.794 29.9244 112.916 30.0892 112.032 30.0687C111.041 30.0687 110.18 29.9074 109.449 29.5849C108.739 29.2755 108.113 28.8036 107.62 28.2072C107.114 27.5796 106.743 26.8545 106.53 26.0772C106.28 25.1824 106.158 24.2569 106.167 23.328C106.158 22.4084 106.29 21.493 106.56 20.6138C106.797 19.8338 107.185 19.1079 107.702 18.4778C108.206 17.8793 108.838 17.4025 109.553 17.0832C110.339 16.7533 111.183 16.5834 112.035 16.5834C112.888 16.5834 113.732 16.7533 114.518 17.0832C115.229 17.4038 115.858 17.8805 116.359 18.4778C116.876 19.1079 117.264 19.8338 117.501 20.6138C117.771 21.493 117.904 22.4084 117.894 23.328C117.902 24.257 117.779 25.1826 117.529 26.0772V26.0772ZM138.813 22.4741C138.659 22.019 138.456 21.5819 138.208 21.1702C137.973 20.7771 137.677 20.4242 137.33 20.1252C136.981 19.8278 136.583 19.5937 136.153 19.4333C135.677 19.2584 135.174 19.1727 134.667 19.1805C134.287 19.1741 133.908 19.233 133.548 19.3547C133.239 19.461 132.947 19.6105 132.681 19.7986C132.442 19.9678 132.223 20.1638 132.028 20.3828C131.844 20.5932 131.685 20.792 131.55 20.9791H131.505V15.0657H129.433V20.9791H129.388C129.254 20.792 129.093 20.5932 128.904 20.3828C128.709 20.1638 128.49 19.9678 128.251 19.7986C127.983 19.6102 127.689 19.4608 127.379 19.3547C127.02 19.2341 126.643 19.1752 126.265 19.1805C125.758 19.1727 125.254 19.2584 124.779 19.4333C124.349 19.5937 123.951 19.8278 123.602 20.1252C123.255 20.4239 122.958 20.7768 122.724 21.1702C122.476 21.5819 122.273 22.019 122.118 22.4741C121.963 22.952 121.851 23.4431 121.784 23.9412C121.709 24.4531 121.672 24.9697 121.671 25.487C121.655 26.4347 121.788 27.3791 122.065 28.2858C122.288 29.019 122.641 29.7064 123.107 30.3154C123.503 30.8298 124.008 31.2503 124.586 31.5467C125.116 31.8176 125.702 31.9601 126.298 31.9628C126.586 31.9634 126.874 31.9387 127.159 31.889C127.441 31.8408 127.714 31.7498 127.969 31.6193C128.244 31.4765 128.495 31.2907 128.712 31.0689C128.979 30.7911 129.208 30.4792 129.393 30.1412H129.438V36.3352H131.51V30.1412H131.555C131.733 30.4814 131.961 30.7939 132.229 31.0689C132.449 31.2899 132.702 31.4755 132.979 31.6193C133.234 31.7498 133.507 31.8408 133.789 31.889C134.073 31.9387 134.361 31.9634 134.65 31.9628C135.245 31.9601 135.831 31.8176 136.361 31.5467C136.939 31.2499 137.444 30.8295 137.841 30.3154C138.307 29.7064 138.659 29.019 138.882 28.2858C139.159 27.379 139.291 26.4347 139.276 25.487C139.276 24.9697 139.238 24.4531 139.163 23.9412C139.091 23.4426 138.974 22.9515 138.813 22.4741V22.4741ZM129.437 26.78C129.437 27.9032 129.21 28.7708 128.756 29.3829C128.302 29.9949 127.644 30.3001 126.781 30.2985C126.415 30.3068 126.053 30.2358 125.718 30.0904C125.418 29.9554 125.148 29.7626 124.923 29.5232C124.693 29.2769 124.504 28.9961 124.361 28.691C124.207 28.3705 124.085 28.0354 123.998 27.6907C123.907 27.3357 123.841 26.9748 123.8 26.6106C123.76 26.2601 123.74 25.9076 123.739 25.5547C123.736 24.9583 123.792 24.363 123.908 23.7779C124.005 23.2672 124.188 22.7765 124.448 22.3265C124.682 21.925 125.01 21.5869 125.405 21.3419C125.834 21.0907 126.326 20.965 126.823 20.9791C127.168 20.9807 127.507 21.0636 127.814 21.221C128.138 21.3862 128.423 21.6203 128.647 21.9068C128.904 22.2386 129.098 22.6139 129.221 23.0147C129.37 23.5045 129.442 24.0146 129.434 24.5266L129.437 26.78ZM137.147 26.6106C137.111 26.975 137.047 27.336 136.956 27.6907C136.868 28.0352 136.746 28.3703 136.592 28.691C136.448 28.9969 136.256 29.2778 136.023 29.5232C135.792 29.7647 135.515 29.9576 135.208 30.0904C134.863 30.2349 134.492 30.3057 134.118 30.2985C133.278 30.2985 132.632 29.9933 132.181 29.3829C131.729 28.7725 131.505 27.9048 131.506 26.78V24.5206C131.497 24.0086 131.569 23.4983 131.719 23.0087C131.842 22.6079 132.037 22.2325 132.293 21.9007C132.517 21.614 132.802 21.3799 133.127 21.2149C133.433 21.0575 133.772 20.9746 134.117 20.973C134.611 20.96 135.099 21.0857 135.524 21.3359C135.919 21.5812 136.247 21.9192 136.481 22.3204C136.741 22.7713 136.926 23.2616 137.027 23.7719C137.146 24.3566 137.205 24.952 137.202 25.5487C137.202 25.9029 137.183 26.257 137.147 26.6094V26.6106ZM143.582 28.7866H143.538V19.5506H141.467V31.5915H143.842L149.751 22.3616H149.796V31.5915H151.878V19.5506H149.503L143.582 28.7866ZM161.847 28.6076C161.684 28.9513 161.463 29.2647 161.194 29.5341C160.947 29.7808 160.652 29.9758 160.328 30.1074C160.003 30.2394 159.655 30.3064 159.304 30.3045C158.835 30.3125 158.369 30.2227 157.937 30.0408C157.531 29.8607 157.179 29.5776 156.917 29.2196C156.614 28.793 156.397 28.3121 156.276 27.8032C156.115 27.1301 156.039 26.4392 156.051 25.747C156.046 25.0961 156.115 24.4467 156.259 23.8118C156.376 23.2758 156.589 22.7655 156.889 22.3059C157.164 21.886 157.542 21.5439 157.987 21.3125C158.433 21.0812 158.93 20.9684 159.432 20.9851C160.265 20.9851 160.911 21.2174 161.37 21.6818C161.828 22.1463 162.111 22.7873 162.218 23.605H164.155C164.13 23.2789 164.08 22.9554 164.004 22.6373C163.923 22.2947 163.806 21.9614 163.655 21.6431C163.494 21.3073 163.29 20.9935 163.05 20.7094C162.789 20.4019 162.482 20.1381 162.138 19.928C161.744 19.6889 161.318 19.5072 160.872 19.3886C160.327 19.2465 159.765 19.1785 159.201 19.1866C158.51 19.1847 157.827 19.3385 157.203 19.6365C156.563 19.9405 155.995 20.3771 155.536 20.9174C155.034 21.5181 154.647 22.2061 154.394 22.947C154.098 23.8132 153.953 24.724 153.967 25.6394C153.957 26.3633 154.033 27.0858 154.191 27.7923C154.322 28.3645 154.526 28.9176 154.797 29.4385C155.023 29.8788 155.32 30.2795 155.674 30.625C155.991 30.9309 156.346 31.1936 156.732 31.4064C157.09 31.6038 157.475 31.7496 157.875 31.8394C158.241 31.9227 158.614 31.9661 158.989 31.9688C159.571 31.977 160.15 31.9029 160.711 31.7487C161.175 31.6208 161.617 31.4239 162.023 31.1645C162.379 30.935 162.698 30.6528 162.968 30.3275C163.218 30.0251 163.431 29.6947 163.604 29.3429C163.765 29.0141 163.891 28.6696 163.981 28.3149C164.061 28.0008 164.12 27.6815 164.155 27.3593H162.218C162.156 27.7891 162.032 28.2075 161.849 28.6015L161.847 28.6076ZM68.7887 30.5017H68.7415L62.4865 15.6027H61.0733V31.5987H62.0603V16.8123H62.1051L68.2728 31.5975H69.2598L75.3609 16.8123H75.4021V31.5987H76.3891V15.6027H74.9794L68.7887 30.5017ZM87.9809 21.608C87.531 21.0541 86.9641 20.6064 86.3206 20.2969C85.6077 19.9795 84.8359 19.8155 84.0554 19.8155C83.2749 19.8155 82.5031 19.9795 81.7902 20.2969C81.1454 20.6064 80.5768 21.0541 80.125 21.608C79.668 22.1768 79.3221 22.8263 79.1054 23.5227C78.8694 24.2728 78.7521 25.0551 78.7578 25.8414C78.7527 26.6311 78.8699 27.417 79.1054 28.1709C79.319 28.869 79.6652 29.5195 80.125 30.0868C80.5776 30.6349 81.1442 31.0782 81.7854 31.3858C82.4983 31.7032 83.27 31.8673 84.0506 31.8673C84.8311 31.8673 85.6029 31.7032 86.3158 31.3858C86.9574 31.0788 87.524 30.6354 87.9761 30.0868C88.436 29.5193 88.7825 28.8689 88.997 28.1709C89.2319 27.4168 89.3491 26.6311 89.3445 25.8414C89.3496 25.0552 89.2324 24.2729 88.997 23.5227C88.7808 22.8268 88.4362 22.1774 87.9809 21.608V21.608ZM88.205 27.8189C88.0251 28.4291 87.7381 29.0025 87.3573 29.5123C86.9868 30.0022 86.5119 30.4038 85.967 30.6879C85.3725 30.9753 84.7207 31.1246 84.0603 31.1246C83.3998 31.1246 82.748 30.9753 82.1535 30.6879C81.607 30.4041 81.1305 30.0025 80.7584 29.5123C80.3781 29.0022 80.0911 28.4289 79.9107 27.8189C79.5216 26.5259 79.5216 25.1472 79.9107 23.8541C80.0907 23.244 80.3777 22.6707 80.7584 22.1608C81.1288 21.6704 81.6036 21.2685 82.1487 20.9839C82.7431 20.6965 83.395 20.5473 84.0554 20.5473C84.7158 20.5473 85.3677 20.6965 85.9622 20.9839C86.5074 21.2681 86.9823 21.6702 87.3524 22.1608C87.7336 22.6704 88.0206 23.2438 88.2001 23.8541C88.5893 25.1472 88.5893 26.5259 88.2001 27.8189H88.205ZM94.1063 17.4473C94.6714 17.9182 95.3815 18.1532 96.2364 18.1524C96.6025 18.1544 96.9651 18.082 97.3022 17.9395C97.6338 17.8009 97.9377 17.6038 98.1995 17.3578C98.4629 17.1085 98.6827 16.817 98.8498 16.4954C99.0195 16.1742 99.1298 15.8251 99.1756 15.4649H98.4357C98.3531 16.0083 98.0884 16.5076 97.6848 16.8812C97.2817 17.2415 96.7554 17.4333 96.2147 17.417C95.9808 17.4164 95.7476 17.39 95.5195 17.3384C95.2737 17.2838 95.0411 17.1811 94.8353 17.036C94.6027 16.8713 94.4014 16.6665 94.2407 16.4313C94.0446 16.1379 93.9077 15.8093 93.8374 15.4636H93.0963C93.202 16.3192 93.5387 16.982 94.1063 17.4521V17.4473ZM92.446 30.4799H92.4242V20.084H91.5764V31.5987H92.6312L99.8308 21.2488H99.8526V31.5987H100.7V20.084H99.6225L92.446 30.4799Z" fill="black"/>
</g>
<defs>
<radialGradient id="paint0_radial_492_5682" cx="0" cy="0" r="1" gradientUnits="userSpaceOnUse" gradientTransform="translate(24.9631 24.0006) scale(24.0339 24.0042)">
<stop stop-color="#261C38" stop-opacity="0.6"/>
<stop offset="0.28" stop-color="#261C38" stop-opacity="0.3"/>
<stop offset="0.86" stop-color="#302640" stop-opacity="0.05"/>
<stop offset="1" stop-color="#302640" stop-opacity="0"/>
</radialGradient>
<clipPath id="clip0_492_5682">
<rect width="163.244" height="48" fill="white" transform="translate(0.924377)"/>
</clipPath>
</defs>
</svg>
