<svg width="49" height="48" viewBox="0 0 49 48" fill="none" xmlns="http://www.w3.org/2000/svg">
<g clip-path="url(#clip0_502_6381)">
<path d="M46.8239 5.75781H25.9754V42.2427H46.8239C47.5444 42.2427 48.1269 41.6602 48.1269 40.9396V7.06084C48.1269 6.34027 47.5444 5.75781 46.8239 5.75781Z" fill="#2196F3"/>
<path d="M25.9754 12.2744H44.2178V14.8792H25.9754V12.2744ZM25.9754 17.4852H44.2178V20.0913H25.9754V17.4852ZM25.9754 22.6987H44.2178V25.3047H25.9754V22.6987ZM25.9754 27.9108H44.2178V30.5155H25.9754V27.9108ZM25.9754 33.1216H44.2178V35.729H25.9754V33.1216Z" fill="white"/>
<path d="M28.5814 47.455L1.21779 42.2429V5.75802L28.5814 0.545898V47.455Z" fill="#0D47A1"/>
<path d="M20.9809 33.137H17.4405L15.0925 21.4253C14.9648 20.8038 14.8905 20.1275 14.8657 19.3718H14.824C14.768 20.2018 14.6807 20.8859 14.5673 21.4253L12.1567 33.137H8.47306L4.7464 14.8763H8.232L10.2335 27.031C10.3142 27.5574 10.3781 28.2532 10.4198 29.1249H10.4745C10.4993 28.476 10.6022 27.7555 10.7651 26.9815L13.3321 14.875H16.7486L19.0745 27.1287C19.1553 27.5822 19.2296 28.2311 19.296 29.0976H19.3364C19.3625 28.4265 19.4315 27.7489 19.5449 27.0609L21.5034 14.875H24.7192L20.9809 33.137Z" fill="white"/>
</g>
<defs>
<clipPath id="clip0_502_6381">
<rect width="48" height="48" fill="white" transform="translate(0.672333)"/>
</clipPath>
</defs>
</svg>
