<svg width="130" height="48" viewBox="0 0 130 48" fill="none" xmlns="http://www.w3.org/2000/svg">
<g clip-path="url(#clip0_492_5698)">
<path d="M46.1515 5.75781H25.303V42.2427H46.1515C46.8721 42.2427 47.4546 41.6602 47.4546 40.9396V7.06084C47.4546 6.34027 46.8721 5.75781 46.1515 5.75781Z" fill="#2196F3"/>
<path d="M25.303 12.2744H43.5455V14.8792H25.303V12.2744ZM25.303 17.4852H43.5455V20.0913H25.303V17.4852ZM25.303 22.6987H43.5455V25.3047H25.303V22.6987ZM25.303 27.9108H43.5455V30.5155H25.303V27.9108ZM25.303 33.1216H43.5455V35.729H25.303V33.1216Z" fill="white"/>
<path d="M27.9091 47.455L0.545441 42.2429V5.75802L27.9091 0.545898V47.455Z" fill="#0D47A1"/>
<path d="M20.3085 33.137H16.7682L14.4201 21.4253C14.2924 20.8038 14.2182 20.1275 14.1934 19.3718H14.1517C14.0957 20.2018 14.0084 20.8859 13.895 21.4253L11.4844 33.137H7.80073L4.07407 14.8763H7.55967L9.56113 27.031C9.64191 27.5574 9.70576 28.2532 9.74746 29.1249H9.80219C9.82694 28.476 9.92988 27.7555 10.0928 26.9815L12.6597 14.875H16.0763L18.4022 27.1287C18.483 27.5822 18.5572 28.2311 18.6237 29.0976H18.6641C18.6902 28.4265 18.7592 27.7489 18.8726 27.0609L20.831 14.875H24.0469L20.3085 33.137Z" fill="white"/>
</g>
<path d="M60.3237 15.8148L63.1769 20.6505L66.0301 15.8148L66.6865 21.5212H68.3207L67.0348 11.6756L63.1769 18.0384L59.3325 11.6756L58.0465 21.5212H59.6807L60.3237 15.8148Z" fill="black"/>
<path d="M69.6843 12.908C69.6843 13.1491 69.7736 13.359 69.9523 13.5376C70.1398 13.7073 70.3541 13.7921 70.5952 13.7921C70.8542 13.7921 71.0685 13.7073 71.2382 13.5376C71.4168 13.359 71.5061 13.1491 71.5061 12.908C71.5061 12.658 71.4168 12.4481 71.2382 12.2784C71.0685 12.1088 70.8542 12.0239 70.5952 12.0239C70.3541 12.0239 70.1398 12.1088 69.9523 12.2784C69.7736 12.4481 69.6843 12.658 69.6843 12.908ZM69.8853 15.3594V21.5212H71.3052V15.3594H69.8853Z" fill="black"/>
<path d="M74.2605 18.4403C74.2605 18.0563 74.3454 17.7169 74.515 17.4222C74.6847 17.1276 74.9124 16.8954 75.1982 16.7257C75.4929 16.556 75.8189 16.4712 76.1761 16.4712C76.4618 16.4712 76.7387 16.5158 77.0066 16.6051C77.2745 16.6944 77.5111 16.8195 77.7165 16.9802C77.9309 17.132 78.0871 17.3106 78.1854 17.516V15.922C77.971 15.7076 77.6808 15.538 77.3147 15.4129C76.9485 15.2879 76.5467 15.2254 76.1091 15.2254C75.475 15.2254 74.9035 15.3638 74.3945 15.6407C73.8944 15.9086 73.497 16.2836 73.2023 16.7659C72.9165 17.2481 72.7736 17.8062 72.7736 18.4403C72.7736 19.0654 72.9165 19.6236 73.2023 20.1147C73.497 20.5969 73.8944 20.9765 74.3945 21.2533C74.9035 21.5212 75.475 21.6552 76.1091 21.6552C76.5467 21.6552 76.9485 21.5927 77.3147 21.4676C77.6808 21.3426 77.971 21.1729 78.1854 20.9586V19.3646C78.0871 19.561 77.9353 19.7396 77.7299 19.9004C77.5245 20.0611 77.2879 20.1862 77.02 20.2755C76.7521 20.3648 76.4708 20.4094 76.1761 20.4094C75.8189 20.4094 75.4929 20.3246 75.1982 20.1549C74.9124 19.9852 74.6847 19.7575 74.515 19.4717C74.3454 19.177 74.2605 18.8332 74.2605 18.4403Z" fill="black"/>
<path d="M81.2177 15.3594H79.7844V21.5212H81.2177V15.3594ZM83.0529 16.8998L83.7495 15.6809C83.6155 15.5112 83.4503 15.3951 83.2538 15.3326C83.0574 15.2611 82.8475 15.2254 82.6243 15.2254C82.3117 15.2254 82.0081 15.337 81.7134 15.5603C81.4276 15.7836 81.191 16.0872 81.0034 16.4712C80.8248 16.8462 80.7355 17.2794 80.7355 17.7705L81.2177 18.0518C81.2177 17.7571 81.249 17.5026 81.3115 17.2883C81.383 17.065 81.4946 16.8909 81.6464 16.7659C81.7982 16.6409 81.9947 16.5783 82.2358 16.5783C82.4144 16.5783 82.5617 16.6051 82.6778 16.6587C82.7939 16.7123 82.919 16.7927 83.0529 16.8998Z" fill="black"/>
<path d="M84.0772 18.4403C84.0772 19.0654 84.2201 19.6236 84.5059 20.1147C84.8006 20.5969 85.198 20.9765 85.6981 21.2533C86.1982 21.5212 86.7652 21.6552 87.3993 21.6552C88.0333 21.6552 88.5959 21.5212 89.0871 21.2533C89.5872 20.9765 89.9846 20.5969 90.2793 20.1147C90.574 19.6236 90.7213 19.0654 90.7213 18.4403C90.7213 17.8062 90.574 17.2481 90.2793 16.7659C89.9846 16.2836 89.5872 15.9086 89.0871 15.6407C88.5959 15.3638 88.0333 15.2254 87.3993 15.2254C86.7652 15.2254 86.1982 15.3638 85.6981 15.6407C85.198 15.9086 84.8006 16.2836 84.5059 16.7659C84.2201 17.2481 84.0772 17.8062 84.0772 18.4403ZM85.5641 18.4403C85.5641 18.0563 85.6445 17.7169 85.8052 17.4222C85.966 17.1276 86.1848 16.8998 86.4616 16.7391C86.7384 16.5783 87.051 16.498 87.3993 16.498C87.7386 16.498 88.0467 16.5783 88.3236 16.7391C88.6093 16.8998 88.8326 17.1276 88.9933 17.4222C89.1541 17.7169 89.2344 18.0563 89.2344 18.4403C89.2344 18.8243 89.1541 19.1636 88.9933 19.4583C88.8326 19.7441 88.6093 19.9718 88.3236 20.1415C88.0467 20.3022 87.7386 20.3826 87.3993 20.3826C87.051 20.3826 86.7384 20.3022 86.4616 20.1415C86.1848 19.9718 85.966 19.7441 85.8052 19.4583C85.6445 19.1636 85.5641 18.8243 85.5641 18.4403Z" fill="black"/>
<path d="M92.3753 19.4985L91.5314 20.3424C91.71 20.5746 91.9288 20.7979 92.1878 21.0122C92.4557 21.2176 92.7638 21.3873 93.1121 21.5212C93.4693 21.6462 93.8577 21.7088 94.2775 21.7088C94.9562 21.7088 95.492 21.5346 95.8849 21.1863C96.2868 20.8291 96.4877 20.3603 96.4877 19.7798C96.4877 19.4048 96.3984 19.1011 96.2198 18.8689C96.0501 18.6368 95.8224 18.4403 95.5366 18.2796C95.2509 18.1188 94.9383 17.9715 94.599 17.8375C94.3489 17.7393 94.1212 17.6455 93.9158 17.5562C93.7193 17.4669 93.5586 17.3687 93.4336 17.2615C93.3175 17.1454 93.2594 17.0159 93.2594 16.873C93.2594 16.7034 93.3264 16.5739 93.4604 16.4846C93.5943 16.3953 93.764 16.3506 93.9694 16.3506C94.273 16.3506 94.5677 16.4265 94.8535 16.5783C95.1392 16.7302 95.3848 16.9266 95.5902 17.1677L96.3939 16.3104C96.2243 16.105 96.0189 15.922 95.7777 15.7612C95.5366 15.6005 95.2643 15.471 94.9606 15.3728C94.6659 15.2745 94.3489 15.2254 94.0096 15.2254C93.6345 15.2254 93.2818 15.2879 92.9513 15.4129C92.6298 15.529 92.3709 15.7121 92.1744 15.9622C91.9869 16.2122 91.8931 16.5248 91.8931 16.8998C91.8931 17.266 91.9779 17.5696 92.1476 17.8107C92.3262 18.0518 92.5495 18.2483 92.8174 18.4001C93.0942 18.543 93.3711 18.668 93.6479 18.7752C93.9247 18.8734 94.1658 18.9716 94.3712 19.0699C94.5766 19.1592 94.7374 19.2708 94.8535 19.4048C94.9696 19.5298 95.0276 19.6816 95.0276 19.8602C95.0276 20.0656 94.9517 20.2263 94.7999 20.3424C94.657 20.4585 94.4561 20.5166 94.1971 20.5166C93.9917 20.5166 93.7863 20.4809 93.5809 20.4094C93.3755 20.329 93.1701 20.2129 92.9647 20.0611C92.7683 19.9004 92.5718 19.7129 92.3753 19.4985Z" fill="black"/>
<path d="M97.3025 18.4403C97.3025 19.0654 97.4454 19.6236 97.7312 20.1147C98.0259 20.5969 98.4233 20.9765 98.9234 21.2533C99.4234 21.5212 99.9905 21.6552 100.625 21.6552C101.259 21.6552 101.821 21.5212 102.312 21.2533C102.812 20.9765 103.21 20.5969 103.505 20.1147C103.799 19.6236 103.947 19.0654 103.947 18.4403C103.947 17.8062 103.799 17.2481 103.505 16.7659C103.21 16.2836 102.812 15.9086 102.312 15.6407C101.821 15.3638 101.259 15.2254 100.625 15.2254C99.9905 15.2254 99.4234 15.3638 98.9234 15.6407C98.4233 15.9086 98.0259 16.2836 97.7312 16.7659C97.4454 17.2481 97.3025 17.8062 97.3025 18.4403ZM98.7894 18.4403C98.7894 18.0563 98.8698 17.7169 99.0305 17.4222C99.1913 17.1276 99.4101 16.8998 99.6869 16.7391C99.9637 16.5783 100.276 16.498 100.625 16.498C100.964 16.498 101.272 16.5783 101.549 16.7391C101.835 16.8998 102.058 17.1276 102.219 17.4222C102.379 17.7169 102.46 18.0563 102.46 18.4403C102.46 18.8243 102.379 19.1636 102.219 19.4583C102.058 19.7441 101.835 19.9718 101.549 20.1415C101.272 20.3022 100.964 20.3826 100.625 20.3826C100.276 20.3826 99.9637 20.3022 99.6869 20.1415C99.4101 19.9718 99.1913 19.7441 99.0305 19.4583C98.8698 19.1636 98.7894 18.8243 98.7894 18.4403Z" fill="black"/>
<path d="M104.81 15.3594V16.6319H108.347V15.3594H104.81ZM108.186 12.6267L108.869 11.5015C108.798 11.4122 108.695 11.3229 108.561 11.2336C108.436 11.1443 108.284 11.0684 108.106 11.0059C107.927 10.9434 107.717 10.9121 107.476 10.9121C107.047 10.9121 106.686 10.9969 106.391 11.1666C106.096 11.3274 105.869 11.5685 105.708 11.89C105.556 12.2025 105.48 12.5999 105.48 13.0822V21.5212H106.9V13.3635C106.9 13.1045 106.927 12.8946 106.98 12.7339C107.034 12.5731 107.105 12.457 107.195 12.3856C107.293 12.3142 107.409 12.2784 107.543 12.2784C107.659 12.2784 107.771 12.3008 107.878 12.3454C107.994 12.3901 108.097 12.4838 108.186 12.6267Z" fill="black"/>
<path d="M108.596 15.3594V16.6319H112.092V15.3594H108.596ZM109.627 13.2161V21.5212H111.06V13.2161H109.627Z" fill="black"/>
<path d="M59.7209 31.9026C59.7209 31.2596 59.8549 30.6881 60.1228 30.188C60.3996 29.679 60.7792 29.2816 61.2614 28.9958C61.7436 28.7101 62.2928 28.5672 62.909 28.5672C63.5431 28.5672 64.0967 28.7101 64.57 28.9958C65.0523 29.2816 65.4273 29.679 65.6953 30.188C65.9632 30.6881 66.0971 31.2596 66.0971 31.9026C66.0971 32.5456 65.9587 33.1216 65.6819 33.6306C65.414 34.1307 65.0389 34.5236 64.5566 34.8094C64.0833 35.0952 63.5341 35.2381 62.909 35.2381C62.2928 35.2381 61.7436 35.0952 61.2614 34.8094C60.7792 34.5236 60.3996 34.1307 60.1228 33.6306C59.8549 33.1216 59.7209 32.5456 59.7209 31.9026ZM58.0465 31.9026C58.0465 32.5992 58.1671 33.2466 58.4082 33.8449C58.6493 34.4433 58.9842 34.9612 59.4128 35.3988C59.8504 35.8364 60.3684 36.1802 60.9667 36.4302C61.565 36.6714 62.2125 36.7919 62.909 36.7919C63.6145 36.7919 64.262 36.6714 64.8513 36.4302C65.4497 36.1802 65.9676 35.8364 66.4052 35.3988C66.8428 34.9612 67.1821 34.4433 67.4233 33.8449C67.6644 33.2466 67.7849 32.5992 67.7849 31.9026C67.7849 31.1971 67.6644 30.5497 67.4233 29.9603C67.1821 29.3709 66.8383 28.8619 66.3918 28.4332C65.9542 27.9956 65.4407 27.6563 64.8513 27.4152C64.262 27.1741 63.6145 27.0535 62.909 27.0535C62.2214 27.0535 61.5784 27.1741 60.9801 27.4152C60.3907 27.6563 59.8727 27.9956 59.4262 28.4332C58.9886 28.8619 58.6493 29.3709 58.4082 29.9603C58.1671 30.5497 58.0465 31.1971 58.0465 31.9026Z" fill="black"/>
<path d="M68.6926 30.4291V31.7017H72.2289V30.4291H68.6926ZM72.0682 27.6965L72.7514 26.5713C72.6799 26.482 72.5772 26.3927 72.4433 26.3034C72.3182 26.2141 72.1664 26.1382 71.9878 26.0756C71.8092 26.0131 71.5994 25.9819 71.3582 25.9819C70.9296 25.9819 70.5679 26.0667 70.2732 26.2364C69.9785 26.3971 69.7508 26.6382 69.5901 26.9597C69.4382 27.2723 69.3623 27.6697 69.3623 28.1519V36.591H70.7822V28.4332C70.7822 28.1742 70.809 27.9644 70.8626 27.8036C70.9162 27.6429 70.9876 27.5268 71.0769 27.4554C71.1752 27.3839 71.2913 27.3482 71.4252 27.3482C71.5413 27.3482 71.6529 27.3705 71.7601 27.4152C71.8762 27.4598 71.9789 27.5536 72.0682 27.6965Z" fill="black"/>
<path d="M72.8263 30.4291V31.7017H76.3627V30.4291H72.8263ZM76.2019 27.6965L76.8851 26.5713C76.8136 26.482 76.7109 26.3927 76.577 26.3034C76.452 26.2141 76.3001 26.1382 76.1215 26.0756C75.9429 26.0131 75.7331 25.9819 75.492 25.9819C75.0633 25.9819 74.7016 26.0667 74.4069 26.2364C74.1122 26.3971 73.8845 26.6382 73.7238 26.9597C73.572 27.2723 73.4961 27.6697 73.4961 28.1519V36.591H74.916V28.4332C74.916 28.1742 74.9428 27.9644 74.9963 27.8036C75.0499 27.6429 75.1214 27.5268 75.2107 27.4554C75.3089 27.3839 75.425 27.3482 75.5589 27.3482C75.675 27.3482 75.7867 27.3705 75.8938 27.4152C76.0099 27.4598 76.1126 27.5536 76.2019 27.6965Z" fill="black"/>
<path d="M77.4155 27.9778C77.4155 28.2189 77.5048 28.4288 77.6834 28.6074C77.8709 28.777 78.0852 28.8619 78.3263 28.8619C78.5853 28.8619 78.7996 28.777 78.9693 28.6074C79.1479 28.4288 79.2372 28.2189 79.2372 27.9778C79.2372 27.7277 79.1479 27.5179 78.9693 27.3482C78.7996 27.1785 78.5853 27.0937 78.3263 27.0937C78.0852 27.0937 77.8709 27.1785 77.6834 27.3482C77.5048 27.5179 77.4155 27.7277 77.4155 27.9778ZM77.6164 30.4291V36.591H79.0363V30.4291H77.6164Z" fill="black"/>
<path d="M81.9916 33.5101C81.9916 33.1261 82.0765 32.7867 82.2461 32.492C82.4158 32.1973 82.6435 31.9651 82.9293 31.7955C83.224 31.6258 83.55 31.5409 83.9072 31.5409C84.1929 31.5409 84.4698 31.5856 84.7377 31.6749C85.0056 31.7642 85.2422 31.8892 85.4476 32.05C85.662 32.2018 85.8182 32.3804 85.9165 32.5858V30.9917C85.7021 30.7774 85.4119 30.6077 85.0458 30.4827C84.6796 30.3577 84.2778 30.2952 83.8402 30.2952C83.2061 30.2952 82.6346 30.4336 82.1256 30.7104C81.6255 30.9783 81.2281 31.3534 80.9334 31.8356C80.6476 32.3179 80.5048 32.876 80.5048 33.5101C80.5048 34.1352 80.6476 34.6933 80.9334 35.1845C81.2281 35.6667 81.6255 36.0462 82.1256 36.3231C82.6346 36.591 83.2061 36.7249 83.8402 36.7249C84.2778 36.7249 84.6796 36.6624 85.0458 36.5374C85.4119 36.4124 85.7021 36.2427 85.9165 36.0284V34.4343C85.8182 34.6308 85.6664 34.8094 85.461 34.9702C85.2556 35.1309 85.019 35.2559 84.7511 35.3452C84.4832 35.4345 84.2019 35.4792 83.9072 35.4792C83.55 35.4792 83.224 35.3943 82.9293 35.2247C82.6435 35.055 82.4158 34.8273 82.2461 34.5415C82.0765 34.2468 81.9916 33.903 81.9916 33.5101Z" fill="black"/>
<path d="M90.1946 36.7249C90.909 36.7249 91.5208 36.5865 92.0298 36.3097C92.5388 36.0329 92.9541 35.6176 93.2755 35.0639L92.0298 34.5549C91.8333 34.8853 91.5877 35.1309 91.293 35.2916C90.9983 35.4524 90.6545 35.5328 90.2616 35.5328C89.8865 35.5328 89.565 35.4524 89.2971 35.2916C89.0381 35.1309 88.8417 34.8987 88.7077 34.5951C88.5738 34.2825 88.5068 33.903 88.5068 33.4565C88.5157 33.01 88.5872 32.6349 88.7211 32.3313C88.8551 32.0276 89.0515 31.7955 89.3105 31.6347C89.5695 31.474 89.8821 31.3936 90.2482 31.3936C90.5518 31.3936 90.8153 31.4606 91.0385 31.5945C91.2707 31.7285 91.4493 31.916 91.5743 32.1571C91.7083 32.3982 91.7753 32.684 91.7753 33.0144C91.7753 33.0769 91.7574 33.1573 91.7217 33.2555C91.6949 33.3449 91.6681 33.4163 91.6413 33.4699L92.0834 32.8537H87.904V33.8449H93.3157C93.3247 33.8092 93.3291 33.7512 93.3291 33.6708C93.3381 33.5904 93.3425 33.5145 93.3425 33.4431C93.3425 32.7822 93.2175 32.2196 92.9674 31.7553C92.7263 31.282 92.3781 30.9203 91.9226 30.6702C91.4672 30.4202 90.9135 30.2952 90.2616 30.2952C89.6097 30.2952 89.0426 30.4291 88.5604 30.697C88.0781 30.956 87.7031 31.3266 87.4352 31.8089C87.1762 32.2911 87.0467 32.8582 87.0467 33.5101C87.0467 34.153 87.1762 34.7156 87.4352 35.1979C87.6941 35.6801 88.0603 36.0552 88.5336 36.3231C89.0158 36.591 89.5695 36.7249 90.1946 36.7249Z" fill="black"/>
<path d="M107.339 33.4967L104.647 26.7454L101.981 33.4967L99.7574 27.2142H97.9223L101.753 37.0866L104.647 30.4559L107.54 37.0866L111.371 27.2142H109.536L107.339 33.4967Z" fill="black"/>
<path d="M110.855 33.5101C110.855 34.1352 110.998 34.6933 111.283 35.1845C111.578 35.6667 111.976 36.0462 112.476 36.3231C112.976 36.591 113.543 36.7249 114.177 36.7249C114.811 36.7249 115.374 36.591 115.865 36.3231C116.365 36.0462 116.762 35.6667 117.057 35.1845C117.352 34.6933 117.499 34.1352 117.499 33.5101C117.499 32.876 117.352 32.3179 117.057 31.8356C116.762 31.3534 116.365 30.9783 115.865 30.7104C115.374 30.4336 114.811 30.2952 114.177 30.2952C113.543 30.2952 112.976 30.4336 112.476 30.7104C111.976 30.9783 111.578 31.3534 111.283 31.8356C110.998 32.3179 110.855 32.876 110.855 33.5101ZM112.342 33.5101C112.342 33.1261 112.422 32.7867 112.583 32.492C112.744 32.1973 112.962 31.9696 113.239 31.8089C113.516 31.6481 113.829 31.5677 114.177 31.5677C114.516 31.5677 114.824 31.6481 115.101 31.8089C115.387 31.9696 115.61 32.1973 115.771 32.492C115.932 32.7867 116.012 33.1261 116.012 33.5101C116.012 33.8941 115.932 34.2334 115.771 34.5281C115.61 34.8139 115.387 35.0416 115.101 35.2113C114.824 35.372 114.516 35.4524 114.177 35.4524C113.829 35.4524 113.516 35.372 113.239 35.2113C112.962 35.0416 112.744 34.8139 112.583 34.5281C112.422 34.2334 112.342 33.8941 112.342 33.5101Z" fill="black"/>
<path d="M120.305 30.4291H118.872V36.591H120.305V30.4291ZM122.14 31.9696L122.837 30.7506C122.703 30.5809 122.538 30.4649 122.341 30.4023C122.145 30.3309 121.935 30.2952 121.711 30.2952C121.399 30.2952 121.095 30.4068 120.801 30.6301C120.515 30.8533 120.278 31.1569 120.091 31.5409C119.912 31.916 119.823 32.3491 119.823 32.8403L120.305 33.1216C120.305 32.8269 120.336 32.5724 120.399 32.3581C120.47 32.1348 120.582 31.9607 120.734 31.8356C120.885 31.7106 121.082 31.6481 121.323 31.6481C121.502 31.6481 121.649 31.6749 121.765 31.7285C121.881 31.7821 122.006 31.8624 122.14 31.9696Z" fill="black"/>
<path d="M128.464 26.1426V36.591H129.924V26.1426H128.464ZM123.361 33.5101C123.361 34.1798 123.499 34.7558 123.776 35.2381C124.053 35.7203 124.419 36.0909 124.874 36.3499C125.339 36.5999 125.834 36.7249 126.361 36.7249C126.879 36.7249 127.33 36.5955 127.714 36.3365C128.107 36.0775 128.415 35.7069 128.638 35.2247C128.871 34.7424 128.987 34.1709 128.987 33.5101C128.987 32.8403 128.871 32.2688 128.638 31.7955C128.415 31.3132 128.107 30.9426 127.714 30.6836C127.33 30.4247 126.879 30.2952 126.361 30.2952C125.834 30.2952 125.339 30.4247 124.874 30.6836C124.419 30.9337 124.053 31.2998 123.776 31.7821C123.499 32.2554 123.361 32.8314 123.361 33.5101ZM124.861 33.5101C124.861 33.0993 124.946 32.7465 125.115 32.4518C125.285 32.1571 125.508 31.9339 125.785 31.7821C126.071 31.6302 126.379 31.5543 126.709 31.5543C126.986 31.5543 127.259 31.6302 127.527 31.7821C127.803 31.9339 128.027 32.1571 128.196 32.4518C128.375 32.7376 128.464 33.0903 128.464 33.5101C128.464 33.9298 128.375 34.287 128.196 34.5817C128.027 34.8675 127.803 35.0862 127.527 35.2381C127.259 35.3899 126.986 35.4658 126.709 35.4658C126.379 35.4658 126.071 35.3899 125.785 35.2381C125.508 35.0862 125.285 34.863 125.115 34.5683C124.946 34.2736 124.861 33.9209 124.861 33.5101Z" fill="black"/>
<defs>
<clipPath id="clip0_492_5698">
<rect width="48" height="48" fill="white"/>
</clipPath>
</defs>
</svg>
